<?xml version="1.0" standalone="no"?>
<!DOCTYPE svg PUBLIC "-//W3C//DTD SVG 1.1//EN" "http://www.w3.org/Graphics/SVG/1.1/DTD/svg11.dtd" >
<svg xmlns="http://www.w3.org/2000/svg">
<metadata></metadata>
<defs>
<font id="baoli_scregular" horiz-adv-x="1024" vert-adv-y="2048" >
<font-face units-per-em="2048" ascent="1761" descent="-287" />
<missing-glyph horiz-adv-x="569" />
<glyph horiz-adv-x="0" vert-adv-y="0" />
<glyph unicode="&#xd;" horiz-adv-x="681" />
<glyph unicode=" " horiz-adv-x="569" vert-adv-y="0" />
<glyph unicode="!" horiz-adv-x="681" d="M332 1012q49 0 84 -13q18 -6 29.5 -11t18.5 -18.5t10 -36t3 -61.5q0 -78 -31 -206q-29 -129 -86 -211q-55 -84 -71 -84q-8 0 -8 6t3 22.5t7 45t4 75.5q0 170 -55 285q-31 57 -31 115q0 55 34 73.5t89 18.5zM461 147q0 -12 -49 -43q-47 -31 -101.5 -30.5t-91.5 28.5 q-31 20 -36 48t7.5 51.5t37 40t51.5 16.5q68 0 102 -47q35 -45 57.5 -52.5t22.5 -11.5z" />
<glyph unicode="&#x22;" horiz-adv-x="737" d="M313 1153q0 -4 -3 -29.5t-11 -70.5q-14 -92 -21.5 -164t-19.5 -90t-33.5 -18.5t-34.5 20.5q-10 23 -14 75t-14 125l-19 150q-6 41 22 61.5t62.5 20.5t62 -19.5t23.5 -60.5zM598 1153q0 -4 -3 -29.5t-11 -70.5q-14 -92 -21.5 -164t-19.5 -90t-34 -18.5t-34 20.5 q-10 23 -14 75t-15 125l-18 150q-6 41 21.5 61.5t62.5 20.5t62.5 -19.5t23.5 -60.5z" />
<glyph unicode="#" horiz-adv-x="1304" d="M1354 727l-357 -43q-39 -72 -63 -162q59 8 114.5 19.5t104.5 27.5l147 -139q-100 -16 -200.5 -26.5t-200.5 -14.5q-14 -96 -14 -158.5t6 -121.5l-207 -54q0 180 27 312q-66 0 -142.5 -3.5t-165.5 -7.5q-90 -176 -135 -239t-80 -64q-35 0 -57 47t-22 121q0 43 84 127 q-66 0 -114 2t-81 6l-102 129q98 -10 194 -13t197 -1q53 84 73 180h-169.5t-108.5 2l-76 146q106 -10 199.5 -16.5t175.5 -6.5q8 47 10 104.5t0 129.5l217 47q-8 -72 -19 -141.5t-28 -139.5q86 0 161 5t140 16q35 86 58.5 138t33.5 75l267 47q-47 -68 -83 -124t-63 -104 l131 35zM817 668q-98 -8 -168.5 -11.5t-118.5 -3.5q-16 -55 -67 -176q178 8 278 19z" />
<glyph unicode="$" horiz-adv-x="1271" d="M330 86q-82 16 -156 42t-141 60l117 160q162 -68 258 -92l133 285q-203 96 -236 141t-33 102q0 92 170 207q174 115 359 109l69 147l136 -61l-48 -103q66 -12 135.5 -36.5t145.5 -59.5l-125 -147q-63 27 -120.5 48t-108.5 38l-129 -277q160 -82 211 -127q55 -47 55 -94 q0 -111 -162 -229q-162 -119 -373 -127l-71 -152l-135 62zM737 958q-10 2 -20 2.5t-21 0.5q-137 0 -237 -125q33 -53 166 -117zM561 231q178 0 289 134q-39 23 -83 50t-95 56z" />
<glyph unicode="%" horiz-adv-x="1693" d="M1157 1233l148 -64l-854 -1142l-107 45zM479 1102q131 53 176 53q70 0 70 -123q0 -125 -70 -231q-68 -104 -178 -176q-106 -70 -180 -70t-139 66q-66 70 -66 151q0 88 94 203q94 119 226 172zM322 653q211 92 210 322q0 47 -28 98q-82 0 -154 -121q-68 -121 -67 -225 q0 -10 1 -21.5t3 -25.5zM1348 682q135 53 180 53q74 0 74 -125t-72 -234.5t-182 -180.5q-106 -70 -185 -70q-74 0 -143 68q-68 70 -68 145q0 94 97 215q98 121 231 176zM1188 225q217 94 217 326q0 49 -29 102q-88 0 -157 -125q-72 -125 -72 -227q0 -25 8 -49z" />
<glyph unicode="&#x26;" horiz-adv-x="1376" d="M1266 705q-35 -135 -115 -222q-41 -45 -100.5 -92t-137.5 -96q137 -133 269 -207q-160 -61 -211 -61t-97 30q-43 31 -137 129q-219 -119 -323 -118q-127 0 -217 84q-86 82 -86 174t99 162.5t273 134.5q-23 68 -22 168q0 106 102 178q100 74 258 73q102 0 180 -53t78 -123 q0 -102 -387 -227q59 -143 172 -287q201 139 185 312zM881 854q-55 55 -148 96l-71 -28q-18 -63 -18.5 -115.5t28.5 -114.5q166 72 209 162zM692 242q-133 176 -188 329q-201 -92 -201 -182q0 -80 62 -135q63 -53 157 -53t170 41z" />
<glyph unicode="'" horiz-adv-x="569" d="M375 1153q0 -4 -3 -29.5t-12 -70.5q-14 -92 -21 -164t-20 -90q-12 -18 -33.5 -18.5t-33.5 20.5q-10 23 -14.5 75t-14.5 125l-18 150q-6 41 21.5 61.5t62.5 20.5t62.5 -19.5t23.5 -60.5z" />
<glyph unicode="(" horiz-adv-x="681" d="M664 1165q-461 -256 -461 -698q0 -129 36.5 -233.5t108.5 -215.5l-141 21q-180 223 -180 539q0 145 47 286q49 143 166 250q121 109 182 109q33 -1 242 -58z" />
<glyph unicode=")" horiz-adv-x="681" d="M477 1190q180 -223 180 -539q0 -145 -49 -286q-47 -143 -166 -250q-121 -109 -180 -109q-33 0 -242 57q461 254 461 699q0 129 -36.5 233.5t-108.5 214.5z" />
<glyph unicode="*" d="M963 1057l-103 -156q-76 2 -125 2t-108 -4q98 -59 184 -147l-215 -31q-41 96 -98 145q-88 -43 -207 -127l-211 64q72 35 149.5 65.5t165.5 53.5q-57 16 -120.5 27.5t-135.5 19.5l43 157q78 -29 152 -60.5t143 -66.5q23 61 23 94t-4 52l241 26q-35 -86 -104 -167 q86 20 167 32.5t163 20.5z" />
<glyph unicode="+" horiz-adv-x="1247" d="M1206 432h-501v-452h-160v452h-502v141h502v453h160v-453h501v-141z" />
<glyph unicode="," horiz-adv-x="512" d="M403 391q0 -70 -43 -158t-133 -147q-88 -57 -106 -57q-4 0 -4 4q0 6 24.5 37.5t44.5 93.5q10 31 15.5 56.5t5.5 50t-7 52t-22 64.5q-8 18 -8 37.5t29 38.5q20 12 55 18t68.5 0t58 -26.5t22.5 -63.5z" />
<glyph unicode="-" horiz-adv-x="1042" d="M1001 432h-958v141h958v-141z" />
<glyph unicode="." horiz-adv-x="512" d="M236 283q39 0 81 -45q41 -45 86 -58q29 -10 29 -33t-53 -69q-53 -47 -154 -47q-53 0 -84.5 32.5t-31.5 83.5t39 93.5t88 42.5z" />
<glyph unicode="/" horiz-adv-x="1642" d="M1636 1102l-1525 -1090l-103 74l1460 1120z" />
<glyph unicode="0" horiz-adv-x="1146" d="M709 975q106 20 168.5 30.5t85.5 10.5q43 0 84 -90q43 -90 43 -211q0 -215 -277 -463q-274 -250 -412 -250q-102 0 -223 107q-121 109 -121 223q0 203 148 403q150 201 399 293zM393 117q203 129 324 284q125 162 125 277q0 72 -16.5 123t-51.5 114l-61 -4 q-213 -102 -324 -288q-109 -188 -108 -351v-54t2 -40z" />
<glyph unicode="1" horiz-adv-x="1146" d="M813 922q0 -152 -92 -424q-45 -137 -101.5 -267.5t-121.5 -253.5l-162 76q100 193 166 412q66 221 65 313v82h-32l-197 -59l-29 96q193 51 307.5 82t151.5 41l45 -39v-59z" />
<glyph unicode="2" horiz-adv-x="1146" d="M223 895q305 137 453 137q150 0 268 -112q121 -111 121 -218q0 -205 -819 -518q109 14 197.5 21.5t160.5 7.5t151 -6t165 -17l-76 -174q-94 16 -174 25.5t-150 9.5t-157 -9t-197 -26l-92 191q133 39 255 98.5t234 145.5q227 168 289 337l-74 80h-69q-137 0 -398 -116z " />
<glyph unicode="3" horiz-adv-x="1146" d="M256 899q319 109 518 109q129 0 223 -78q92 -78 93 -152q0 -53 -125 -113.5t-334 -134.5q37 4 77 7.5t83 3.5q90 0 165 -70q57 -55 74 -99t-4.5 -85t-79 -84t-147.5 -94q-123 -68 -246 -100t-254 -32q-129 0 -190 31q-59 31 -60 76q0 45 57 45q23 0 68 -10 q154 -43 275 -43q41 0 118 41q76 43 146 108q70 68 69 99q0 31 -63 82q-31 27 -70 39t-83 14t-91 -3t-96 -14l-37 68q205 72 354 160q154 94 187 155l-45 41q-213 -4 -498 -92z" />
<glyph unicode="4" horiz-adv-x="1146" d="M1069 303l-84 -133q-35 2 -63.5 3t-53.5 1q-23 -39 -54.5 -85t-70.5 -99l-125 -19q31 51 55.5 104.5t45.5 106.5q-295 -6 -535 -37q-61 82 -61 111q0 14 8 31q29 55 69 122.5t87 145.5q47 80 90 144.5t78 111.5q74 98 110 129q35 29 82 39l291 47q-276 -248 -551 -653 l-156 -113q106 16 239.5 29.5t293.5 21.5q43 162 43 291q0 23 -1 45.5t-3 48.5l221 -92q-4 -164 -78 -295q117 -4 123 -6z" />
<glyph unicode="5" horiz-adv-x="1146" d="M1145 961l-103 -148q-233 55 -485 47q-47 -59 -97 -133t-102 -162q70 16 153 24.5t181 8.5q43 0 74 -2t55.5 -8t46 -18.5t43.5 -30.5q45 -37 59.5 -59.5t14.5 -59.5q0 -113 -113 -213q-57 -51 -131.5 -93t-173.5 -75q-188 -63 -366 -64q-131 0 -164 39q-35 41 -35 70 q0 31 10.5 39t30.5 8q53 0 250 -51q20 -4 38.5 -7t37.5 -3q37 0 137 59t160 133q43 57 54 99t-1 68t-44 36t-77 8q-76 0 -129 -3t-88 -7q-68 -10 -129 -37l-84 70q92 133 158.5 253.5t107.5 231.5q139 27 295 27q76 0 179.5 -12t236.5 -35z" />
<glyph unicode="6" horiz-adv-x="1146" d="M334 455q100 106 229 172q127 63 223 63q94 0 175 -55q80 -55 79 -113q0 -127 -106 -248q-109 -123 -264 -204q-156 -82 -228 -82q-45 0 -109.5 34.5t-123.5 92.5q-57 57 -75.5 93t-18.5 81q0 190 105.5 347t283.5 267q176 113 237 113q59 0 267 -117q-283 -29 -463 -147 q-182 -121 -211 -297zM809 526l-72 49q-150 -25 -268 -118q-121 -96 -121 -172q0 -49 23 -101q20 -45 35 -71q12 -23 98 -25q305 176 305 438z" />
<glyph unicode="7" horiz-adv-x="1146" d="M1065 973l-68 -133q-461 -473 -569 -842l-244 57q268 492 705 789q-231 -39 -412 -39q-174 0 -342 12l66 152q100 -14 180 -20.5t139 -6.5h105.5t74.5 2q63 4 121 12l117 17h127z" />
<glyph unicode="8" horiz-adv-x="1146" d="M866 930q154 41 181 41q29 0 43 -13.5t14 -29.5q0 -143 -395 -365q119 -55 191.5 -105t72.5 -108q0 -55 -78 -145q-76 -86 -210 -142.5t-306 -56.5q-92 0 -141.5 13.5t-85.5 39.5q-35 27 -68 80.5t-33 106.5q0 133 352 258q-211 106 -210 192q0 115 108 201 q106 86 438 86q37 0 59.5 -3t36 -9t19.5 -16.5t12 -24.5zM860 856q-35 4 -64.5 7t-58.5 3q-78 0 -142.5 -8t-111.5 -20.5t-73.5 -28.5t-26.5 -35q0 -31 43 -63q23 -16 72 -43t127 -66q215 117 235 254zM797 281q-51 41 -125 86t-174 96q-104 -39 -176 -96q-72 -55 -72 -88 q0 -29 35 -74q33 -41 55 -62q20 -18 86 -18q141 0 307 76z" />
<glyph unicode="9" horiz-adv-x="1146" d="M745 940q172 47 199 47q33 0 56.5 -62.5t23.5 -185.5q0 -205 -92 -336q-88 -127 -289 -260q-195 -131 -289 -131q-61 0 -256 103q166 27 295 71.5t228 108.5q197 129 196 272q-182 -154 -342 -192.5t-276 47.5q-80 57 -80 131t131 192.5t371 251.5zM483 461 q315 123 316 282q0 61 -27 136l-82 28q-246 -135 -338 -385z" />
<glyph unicode=":" horiz-adv-x="681" d="M313 760q41 0 82 -47q27 -33 82 -56q49 -16 -6 -75q-27 -29 -76 -47.5t-96 -18.5q-45 0 -74.5 31t-29.5 82t37.5 91t80.5 40zM313 260q41 0 76 -43q39 -43 88 -59q51 -16 -4 -74q-29 -31 -78 -49.5t-96 -18.5q-45 0 -74.5 31t-29.5 82t37.5 91t80.5 40z" />
<glyph unicode=";" horiz-adv-x="681" d="M336 762q37 0 76 -45q33 -39 84 -58q18 -6 18 -21t-27 -44q-25 -29 -73.5 -46.5t-91.5 -17.5t-72 30t-29 77q0 25 10.5 47.5t27.5 39.5t38 27.5t39 10.5zM481 317q0 -63 -35 -149q-33 -78 -135 -143q-98 -61 -125 -62q-10 0 -10 9.5t35 54.5q27 33 44 60.5t23.5 58 t1 67.5t-23.5 90q-8 18 -8 39q0 20 30.5 47t81.5 27q121 -1 121 -99z" />
<glyph unicode="&#x3c;" horiz-adv-x="1316" d="M1235 254l-45 -135l-1108 344v121l1108 346l45 -135l-848 -271z" />
<glyph unicode="=" horiz-adv-x="1142" d="M1061 528h-979v142h979v-142zM1061 231h-979v142h979v-142z" />
<glyph unicode="&#x3e;" horiz-adv-x="1316" d="M1235 463l-1108 -344l-45 135l848 270l-848 271l45 135l1108 -346v-121z" />
<glyph unicode="?" horiz-adv-x="913" d="M459 1022q137 0 227 -61t90 -140q0 -78 -43 -170q-41 -92 -92 -129q-41 -29 -69.5 -51t-49.5 -39q-37 -33 -88 -88q-12 -12 -19 -12t-7 8q0 6 41 84q23 39 47 81t53 87q57 90 57 186q0 18 -2 39t-11 38t-26.5 27.5t-48.5 10.5q-59 0 -78.5 -13.5t-29.5 -50.5 q-16 -66 -111 -65q-162 0 -162 70q0 76 94 131q95 57 228 57zM401 242q39 0 78 -33q27 -25 86 -41q20 -6 20.5 -16.5t-24.5 -30.5q-23 -20 -75 -35.5t-97 -15.5t-74.5 22.5t-29.5 57.5t37.5 63.5t78.5 28.5z" />
<glyph unicode="@" horiz-adv-x="1658" d="M1487 227q-229 -229 -633 -229q-334 0 -553 156q-219 158 -219 389t227 391q225 162 555 162q315 0 514 -127q199 -125 199 -322q0 -176 -168 -299q-168 -121 -352 -121q-102 0 -117 74q-96 -74 -195 -74q-137 0 -237 78q-96 78 -96 184q0 139 118 240q121 102 287 102 q170 0 256 -90l23 72l161 -33l-96 -323q-12 -39 -12 -63.5t29 -24.5q78 0 159 75q84 78 84 170q0 154 -161 254q-164 102 -412 103q-250 0 -424 -125q-174 -123 -174 -303q0 -178 182 -299q184 -117 459 -117q238 0 405 100h191zM768 352q98 0 170 66q72 68 72 137 q0 35 -15.5 63.5t-41 50t-58.5 34t-70 12.5q-109 0 -178 -64q-70 -63 -69 -137q0 -74 52 -118t138 -44z" />
<glyph unicode="A" horiz-adv-x="1222" d="M1120 61l-211 -47q-72 160 -94 344q-92 29 -172 29t-125 -2q-301 -375 -391 -375q-66 0 -66 121q0 82 50 131q47 47 219 131q29 14 52.5 30.5t43.5 33.5q20 18 47 46.5t62 69.5q104 117 162.5 221.5t64.5 182.5q147 25 268 63q-35 -162 -35 -362q0 -102 6.5 -187 t21.5 -159t38.5 -141t58.5 -130zM823 866q-102 -227 -254 -405q78 10 134.5 10t103.5 -2v92q0 74 4 150.5t12 154.5z" />
<glyph unicode="B" horiz-adv-x="1273" d="M543 778q139 152 221 205q84 53 158 53t168 -53q94 -51 94 -100q0 -231 -393 -338q76 12 144.5 13t120.5 -11t82.5 -41t32.5 -76q0 -162 -210 -291q-209 -129 -502 -129q-193 0 -295.5 45t-102.5 121q59 88 106.5 165t80.5 142q63 131 80 217q8 43 11 116t3 177l260 43 q-10 -66 -24.5 -130.5t-34.5 -127.5zM997 872l-118 66q-389 -205 -531 -772q98 -39 158 -55q57 -12 125 -13q113 0 203 103q92 100 92 180q0 31 -35 76q-37 6 -78 9t-83 3t-82 -2t-70 -6l-25 86q141 8 264 100q121 88 180 225z" />
<glyph unicode="C" horiz-adv-x="1294" d="M1253 893l-133 -125q-143 98 -372 156q-154 -84 -267 -275q-113 -193 -112 -323q0 -49 82 -119t174 -70q57 0 162.5 35t228.5 96l33 -55q-160 -92 -303.5 -146.5t-235.5 -54.5q-150 0 -268 111q-119 111 -119 242t104 301q51 84 123 152.5t158 117.5t184.5 75.5 t206.5 26.5q141 0 354 -145z" />
<glyph unicode="D" horiz-adv-x="1239" d="M809 1042q102 -117 168.5 -204.5t101.5 -147.5q70 -119 70 -229.5t-76 -214.5q-80 -104 -196 -168q-119 -63 -199 -64q-80 0 -287 125q-66 -61 -105.5 -87.5t-72.5 -26.5t-86 59t-53 80q0 23 12 45q285 481 344 833l156 -63zM354 248q72 -39 150 -62.5t127 -23.5 q109 0 198 84q90 86 91 198q0 182 -285 488q-84 -346 -281 -684z" />
<glyph unicode="E" horiz-adv-x="1302" d="M1241 1018l-92 -166q-201 20 -312.5 20t-164.5 -2q-39 -59 -83 -141t-95 -186q29 20 49 34.5t30 24.5q242 18 373 19h105l-117 -158q-147 23 -257 22.5t-208 -12.5q-20 -45 -39.5 -96t-38.5 -111l-143 -96q248 35 429 35t312 -15l-84 -174q-92 12 -193.5 19.5t-205 7.5 t-205.5 -7t-199 -22q74 156 86 209q80 334 185 539l202 98q-59 -2 -266 -31l101 146q178 27 328.5 40t275.5 13q57 0 113.5 -3t113.5 -7z" />
<glyph unicode="F" horiz-adv-x="1251" d="M1208 1020l-90 -170q-72 10 -143.5 16t-145.5 6q-72 0 -124 -1t-84 -3q-113 -168 -179 -385l105 66q104 14 193 21.5t165 7.5h105l-115 -158q-104 18 -229 18t-236 -10q-43 -170 -43 -289q0 -47 6 -84l-278 -53q20 174 92 399q72 229 147 371l172 84q-45 -4 -103 -11 t-130 -18l84 136q315 68 620 67q57 0 109.5 -3t101.5 -7z" />
<glyph unicode="G" horiz-adv-x="1337" d="M1276 618l-21 -86q-59 -27 -127.5 -46t-148.5 -29l115 -54q-37 -35 -61.5 -68.5t-41 -75.5t-27 -92t-16.5 -114l-229 -49q14 102 72 201q-88 -55 -152 -91t-102 -53q-74 -33 -142 -32q-96 0 -194 112q-98 113 -99 189q0 100 88 274t256 307q168 131 418 131 q82 0 183.5 -44t193.5 -119l-160 -113q-135 98 -348 156q-117 -70 -231 -242q-57 -86 -96 -172t-62 -178q14 -55 70 -111q57 -53 98 -53q74 0 213 88q143 90 176 192q-98 -12 -189 -12t-134 17l106 139q94 -16 201 -17q92 0 189.5 11t201.5 34z" />
<glyph unicode="H" horiz-adv-x="1490" d="M1430 1036q-344 -489 -345 -862q0 -45 7 -108l-258 -58q0 291 88 512q-236 0 -398 -49q-82 -217 -163.5 -340t-139.5 -123q-45 0 -82 58q-37 57 -37 106q0 25 15.5 56.5t40 65.5t58.5 67.5t71 62.5q49 39 79.5 180t28.5 369l258 51q-8 -88 -33.5 -202.5t-66.5 -258.5 q156 53 416 90q74 174 159 320z" />
<glyph unicode="I" horiz-adv-x="796" d="M600 1032q6 -41 6 -80q0 -207 -76 -428q-78 -225 -223 -518l-186 47q117 248 176 460t59 359q0 16 -2 41t-6 58z" />
<glyph unicode="J" horiz-adv-x="1073" d="M991 1030q-115 -256 -224.5 -452.5t-215.5 -341.5q121 -6 219 -31l-35 -68q-82 27 -170 27q-84 0 -108 -25q-84 -80 -135 -116q-51 -35 -105.5 -35t-95.5 37q-39 39 -39 90t81 82.5t234 38.5q154 229 209 561q104 47 162 86q-160 -23 -291 -33t-239 -8l67 155 q35 -2 66.5 -2h62.5q92 0 169 4.5t138 12.5q125 18 140 18h110z" />
<glyph unicode="K" horiz-adv-x="1400" d="M1339 903q-172 -61 -317 -201l-61 37q59 88 108 142q-143 -49 -342 -201q0 -100 131 -274q131 -172 289 -279l-174 -121q-78 66 -143.5 135.5t-116.5 145.5q-102 152 -103 227q0 55 37 78l-10 18q-63 -25 -113.5 -97.5t-105.5 -217.5q-53 -143 -89 -211t-81 -68 q-43 0 -96 60q-49 61 -50 104q0 45 19 80q10 16 29.5 44t52.5 63q131 143 166 297q33 150 30 325l250 53q-14 -209 -108 -419q420 414 557 413q59 0 241 -133z" />
<glyph unicode="L" horiz-adv-x="1040" d="M979 188q-31 -51 -54.5 -96t-39.5 -86q-86 16 -173 24.5t-180 8.5q-92 0 -198.5 -8t-231.5 -25l91 156q135 559 288 815l326 76q-129 -172 -205 -328q-78 -160 -184 -469l-150 -98q201 45 437 45q66 0 134 -3.5t140 -11.5z" />
<glyph unicode="M" horiz-adv-x="1703" d="M858 1034q-47 -178 -47 -405q0 -369 53 -369q18 -2 55 24.5t84.5 76t100.5 117t102 146t92 164.5t72 173q27 74 66 73q37 0 102 -71q63 -70 64 -105q0 -18 -15 -33q-43 -47 -71.5 -136t-42 -195.5t-8.5 -220t34 -207.5l-209 -48q-33 92 -33 203q0 236 72 445 q-119 -227 -315 -443q-199 -217 -262 -217q-49 0 -86 139q-35 141 -35 294t6 313q-37 -117 -76 -214.5t-80 -177.5q-80 -160 -223 -346l-197 66q231 197 373 434q141 236 164 469z" />
<glyph unicode="N" horiz-adv-x="1517" d="M1049 209q31 61 55 119.5t40.5 108.5t26 89t9.5 62q0 31 -25 96q-25 63 -25 129q0 115 95 166q94 55 149 55q43 0 43 -47q0 -70 -92 -348q-45 -139 -105.5 -288.5t-136.5 -313.5l-139 -39q-287 344 -350 805q-94 -459 -338 -807l-195 70q438 475 463 913l264 61 q-2 -18 -3 -36.5t-1 -38.5q0 -186 74 -404q76 -213 191 -352z" />
<glyph unicode="O" horiz-adv-x="1280" d="M782 963l267 53q45 0 96 -88q53 -90 53 -211q0 -164 -129 -326q-129 -166 -317 -278q-188 -113 -295 -113q-55 0 -150 61q-47 31 -88 69t-71.5 78t-48 79t-17.5 73q0 178 147 373q150 193 392 293zM465 102q459 287 459 543q0 76 -19 129q-18 57 -74 146l-61 -9 q-111 -55 -191.5 -117.5t-135 -140.5t-80 -173t-25.5 -214q0 -16 5 -29.5t18.5 -32t38 -42t65.5 -60.5z" />
<glyph unicode="P" horiz-adv-x="1265" d="M586 743q211 279 362 279q109 0 195 -55t86 -115q0 -170 -172 -311t-369 -142q-29 -4 -58.5 17.5t-44 48.5t-7 49.5t54.5 22.5q20 0 62 -11.5t134 -19.5q164 127 183 328l-97 45q-160 -63 -286.5 -230.5t-200.5 -408.5q-45 -145 -74 -193q-27 -45 -67 -45q-39 0 -101 64 q-59 66 -59 100q0 53 94 168q47 59 76 98t37 57q8 20 19.5 54.5t25.5 85.5q29 104 29 193t-2 147l258 61q-23 -76 -42.5 -147.5t-35.5 -139.5z" />
<glyph unicode="Q" horiz-adv-x="1280" d="M889 209q72 -16 144.5 -17.5t127.5 -1.5q39 0 2 -38q-10 -10 -26.5 -24.5t-38 -31t-43 -32t-39.5 -25.5q-145 16 -256 80q-193 -119 -303 -119q-55 0 -150 61q-47 31 -88 69t-71.5 78t-48 79t-17.5 73q0 178 147 373q150 193 392 293l161 -63q244 51 269 51q43 0 94 -88 q53 -88 53 -209q0 -256 -309 -508zM635 219q-47 45 -92 123l35 35q31 -27 63.5 -50.5t67.5 -45.5q215 186 215 364q0 76 -19 129q-18 57 -74 146l-61 -9q-111 -55 -191.5 -117.5t-135 -140.5t-80 -173t-25.5 -214q0 -16 5 -29.5t18.5 -32t38 -42t65.5 -60.5q47 29 89 58.5 t81 58.5z" />
<glyph unicode="R" horiz-adv-x="1296" d="M553 762q131 137 222 200.5t177 63.5t174 -70t88 -135q0 -104 -120.5 -191t-354.5 -143q23 -74 133 -190q113 -121 222 -191l-215 -108q-72 63 -134.5 131t-115.5 141q-104 147 -105 203q0 29 35 39q215 57 313 121q98 61 99 188q0 25 -16.5 39t-65.5 33 q-348 -170 -438 -465q-12 -39 -34 -98.5t-50 -141.5q-59 -160 -78 -176q-16 -14 -37 -14q-45 0 -109 61q-61 63 -61 109q0 31 31 80q16 25 59 84t115 157q31 41 47 138q8 47 11 134t3 214l262 51q-10 -70 -25.5 -135.5t-31.5 -128.5z" />
<glyph unicode="S" horiz-adv-x="1370" d="M1288 926l-125 -148q-188 76 -270 99q-84 23 -152 22q-133 0 -233 -125q20 -33 67 -63q23 -14 75 -43t138 -72q166 -82 226 -131q57 -45 57 -98q0 -117 -176 -238q-174 -119 -373 -119q-47 0 -101 8.5t-111.5 23.5t-116 36.5t-111.5 48.5l117 160q276 -117 419 -117 q166 0 281 133q-80 51 -175 104.5t-208 108.5q-109 53 -151.5 97t-42.5 110q0 92 161 203q162 113 338 112q242 1 467 -112z" />
<glyph unicode="T" horiz-adv-x="1064" d="M1004 1008l-68 -144q-164 -35 -397 -45l116 -45q-78 -147 -125 -309q-43 -160 -43 -259.5t15 -148.5l-277 -57q12 356 240 817q-184 0 -363 37l84 154q150 -39 294.5 -39t269.5 12q61 6 102 11t64.5 8.5t34 5.5t12.5 2h41z" />
<glyph unicode="U" horiz-adv-x="1374" d="M453 154q156 68 290 217q135 150 205 329q20 51 41 100.5t43 96.5q43 94 62 117q18 23 39 22q37 0 106 -63q74 -66 74 -125t-195 -277q-25 -29 -41 -94t-16 -151q0 -180 45 -271l-264 -49q-10 66 -10.5 162t28.5 207q-94 -133 -256 -252q-158 -117 -244 -117t-172 92 q-86 94 -86 158q0 35 50 150q88 215 122 337q16 63 25.5 119t7.5 107l262 63q-4 -330 -252 -743q52 -86 136 -135z" />
<glyph unicode="V" horiz-adv-x="1323" d="M961 686q-35 143 -35 184q0 47 54 91.5t132 68.5q80 25 115 25t35 -47t-115 -242q-57 -98 -129 -192.5t-160 -192.5q-172 -186 -319 -297q-145 -104 -205 -104q-61 0 -148 98q-84 100 -84 213q0 115 56 309q55 195 139 352l321 64q-135 -207 -215 -443q-78 -240 -77 -380 q0 -63 39 -64q53 0 272 184q111 92 191 185.5t133 187.5z" />
<glyph unicode="W" horiz-adv-x="1890" d="M1004 205q59 37 108 71.5t94 73.5t88 82t88 92q45 51 74 83t41 48q25 31 25 68q0 18 -15 74q-12 61 -12 100t37 74q39 33 123 67q86 35 133 35q41 0 41 -39q0 -96 -209 -385q-205 -287 -401 -465q-193 -174 -246 -174q-51 0 -119 70t-68 117q0 80 8.5 162.5t24.5 168.5 q-47 -117 -221 -317q-168 -199 -242 -199q-63 0 -157 101q-96 102 -97 192q0 215 207 676l289 57q-141 -252 -220 -453.5t-79 -314.5q0 -51 94 -96q131 106 264 277q131 172 166 276q53 162 74 195q20 37 125 73q100 37 190 37q47 0 48 -35q0 -25 -19 -55q-10 -16 -31.5 -45 t-56.5 -70q-68 -84 -98 -135q-29 -49 -45 -141q-14 -86 -14 -165t8 -181z" />
<glyph unicode="X" horiz-adv-x="1540" d="M788 686q186 180 308.5 266t191.5 86q70 0 120 -38.5t50 -88.5q0 -25 -18 -57q-10 -16 -36 -51t-67 -92l-86 28q10 29 21.5 52.5t25.5 46.5q-88 -6 -186 -68q-49 -31 -117.5 -83t-160.5 -124q68 -223 231 -483l-191 -29q-72 94 -125 184.5t-85 176.5q-262 -207 -467 -492 l-115 37q223 326 516 575q-94 221 -94 490l260 43q-8 -74 -8.5 -170t32.5 -209z" />
<glyph unicode="Y" horiz-adv-x="1341" d="M1260 975q-227 -487 -670 -905q72 -6 129 -12.5t102 -14.5l-30 -57q-51 8 -123 11t-164 5q-180 -156 -309 -156q-23 0 -43.5 11.5t-36 30t-24.5 40t-9 43.5q0 80 244 111q84 10 114 24q33 14 90 72l-112 12q-100 289 -101 529q0 141 48 270l247 55q-37 -164 -49 -268 q-4 -51 -7 -113.5t-3 -134.5q0 -147 18 -266l39 -6q264 315 416 815z" />
<glyph unicode="Z" horiz-adv-x="1271" d="M1210 1032l-45 -143q-168 -113 -371.5 -290t-447.5 -419q82 16 165 25.5t169 9.5t156.5 -6t128.5 -16l-95 -166q-219 18 -364 18q-147 0 -285 -39l-98 129q-20 27 -20.5 47.5t44.5 50.5q217 143 418 320q203 182 291 305q-203 -37 -339 -37t-204 19l80 174 q168 -27 275.5 -27t160.5 2q53 4 106.5 9.5t108.5 15.5l109 18h57z" />
<glyph unicode="[" horiz-adv-x="1105" d="M1065 1202l-66 -145q-86 8 -155.5 11t-122.5 3q-104 0 -248 -18l148 -56q-106 -172 -183.5 -359t-128.5 -398l-112 -76q182 33 305 33q59 0 115.5 -3.5t107.5 -7.5l-78 -149q-72 10 -139.5 16t-126.5 6q-119 0 -340 -30l70 133q23 137 51 253.5t63 215.5q72 203 187 420 l-52 90q295 76 519 76q102 -1 186 -15z" />
<glyph unicode="\" horiz-adv-x="1642" d="M1636 86l-102 -74l-1526 1090l168 104z" />
<glyph unicode="]" horiz-adv-x="1124" d="M1083 1143l-75 -99q-14 -20 -23 -92q-20 -147 -104 -379q-80 -227 -179 -413l11 -113q-94 10 -177 15.5t-155 5.5t-157 -6.5t-183 -16.5l74 174q33 2 61.5 3t54.5 1q162 0 420 -55l-137 94q203 365 313 762l150 33q-178 27 -326.5 26.5t-253.5 -10.5l60 154q23 2 48 3 t52 1q237 0 526 -88z" />
<glyph unicode="^" horiz-adv-x="892" d="M811 1137l-76 -74l-291 256l-286 -256l-76 74l364 448z" />
<glyph unicode="_" horiz-adv-x="2048" d="M2048 -410h-2048v148h2048v-148z" />
<glyph unicode="`" horiz-adv-x="681" d="M330 1366q76 0 78 -82q2 -135 11 -205.5t9 -91.5q0 -27 -8 -39t-19.5 -14t-25 5t-25.5 19q-12 16 -29.5 67.5t-34 107t-28.5 101.5t-14 56q0 76 86 76z" />
<glyph unicode="a" horiz-adv-x="1048" d="M283 647q152 47 303 47q240 0 309 -100q72 -100 72 -135q0 -16 -21 -37q-39 -41 -62.5 -68.5t-33.5 -44.5q-20 -27 -21 -47q0 -51 18.5 -110.5t49.5 -100.5l-178 -26q-57 72 -60 184q-117 -86 -211 -137.5t-163 -51.5q-70 0 -135 52q-68 51 -68 100q0 88 170 199 q172 115 487 202q-76 27 -193.5 27t-277.5 -45zM764 467l-49 25q-362 -135 -445 -326l80 -43q184 78 309 180q21 55 105 164z" />
<glyph unicode="b" horiz-adv-x="1058" d="M367 440q135 135 246.5 205t174.5 70q66 0 127 -49q63 -45 64 -101q0 -92 -105 -227q-106 -135 -260 -225q-158 -92 -301 -93q-92 0 -161 74q-70 76 -70 139q0 41 74 115q20 20 43 107q51 227 104 360t86 172q31 37 135 72t157.5 35t53.5 -19q0 -8 -10 -18 q-286 -314 -358 -617zM768 526l-74 52q-119 -49 -258 -181q-139 -133 -139 -178q0 -25 53 -67q57 -43 76 -48q283 160 342 422z" />
<glyph unicode="c" horiz-adv-x="995" d="M934 473l-207 -27l-41 189l-154 -33q-33 -45 -64.5 -96t-61.5 -111q-59 -119 -60 -139q0 -20 35 -61q37 -37 72 -37q121 0 385 131l-13 -62q-6 -25 -24 -41q-12 -12 -119 -57q-49 -20 -100.5 -38.5t-97.5 -32t-82.5 -20.5t-57.5 -7q-76 0 -158 69q-84 72 -84 121 q-4 35 20.5 94.5t62.5 122t85 115.5t90 76q53 29 154 57q98 29 179 29t114 -8q37 -10 51 -25q18 -16 40 -71.5t36 -137.5z" />
<glyph unicode="d" horiz-adv-x="1222" d="M745 635q182 453 265 452q35 0 82 -79q49 -78 49 -109q0 -27 -41 -74q-242 -256 -242 -522q0 -109 43 -240l-211 -40q-25 94 -24.5 147t2.5 80q-258 -227 -340 -227q-47 -4 -92.5 21.5t-80 59t-56 68.5t-17.5 53q0 59 154 217q160 160 360 250zM725 586l-39 8 q-266 -131 -381 -389q20 -16 41 -31.5t41 -30.5q78 45 149.5 100.5t137.5 123.5q12 119 51 219z" />
<glyph unicode="e" horiz-adv-x="980" d="M834 279l-7 -56q-4 -29 -22 -43q-14 -12 -113 -53q-47 -18 -96 -34.5t-96 -30t-88 -20.5t-72 -7q-86 0 -172 67q-43 33 -63.5 65t-22.5 65.5t12.5 71.5t40.5 85q45 78 83 129t67 78q55 49 170 84t237 35q125 0 166 -31q41 -29 41 -111q0 -80 -47 -122q-45 -43 -164 -70 q-59 -14 -153.5 -29.5t-229.5 -34.5q12 -102 111 -165q213 39 418 127zM690 551v86l-215 -27q-78 -96 -147 -215q117 8 187.5 20.5t109.5 31t52 43t13 61.5z" />
<glyph unicode="f" horiz-adv-x="886" d="M324 719q238 397 360 397q37 0 90 -49q53 -47 53 -79t-43 -60q-156 -100 -237 -211h192l-28 -82h-222q-68 -88 -102.5 -187.5t-34.5 -185.5t10.5 -144.5t10.5 -70.5q0 -66 -84 -100q-84 -37 -123 -37q-63 0 -64 98q0 98 41 240q23 72 36.5 119t17.5 71q12 49 12 99 l-4 120q0 29 22.5 41.5t96.5 20.5z" />
<glyph unicode="g" horiz-adv-x="1181" d="M606 369q141 2 233.5 -15.5t153.5 -36.5q61 -16 84 -33.5t23 -41.5q0 -70 -80 -158q-78 -90 -234 -154q-160 -66 -344 -65q-100 0 -170 24q-70 20 -129 131q-59 106 -61 173l209 -19q6 -37 41 -90q35 -47 53 -64q14 -12 92 -12q39 0 73 3t66 7q33 4 83.5 22.5t121.5 47.5 l72 94q-178 72 -328 72q-55 0 -103 -9t-81 -9q-98 0 -98 67q0 25 16 42t37 22q10 2 25.5 3t33 3t36 9t34.5 24q-47 23 -87 50t-75 56q-66 61 -65 96q0 129 110 213q113 84 397 84q29 0 46.5 -1t30 -7t20.5 -16.5t18 -28.5q141 39 178 39q39 0 39 -39q0 -88 -92 -191.5 t-266 -207.5q-14 -8 -42 -28.5t-71 -55.5zM829 754q-23 2 -45 3t-49 1q-135 0 -212 -28t-77 -64q0 -86 150 -156q213 115 233 244z" />
<glyph unicode="h" horiz-adv-x="1036" d="M408 463q68 53 134 96t132 72q131 61 172 61q43 0 82 -39q43 -39 43 -60.5t-15 -51.5q-102 -240 -131 -471l-223 -54q31 215 197 506l-66 45q-172 -70 -263 -163t-120 -248q-10 -53 -23.5 -86t-34 -45.5t-52 -5t-80.5 35.5q-66 41 -66 78t47 96q23 29 39.5 53.5 t24.5 43.5q20 39 41 145q23 113 92 291q72 182 104 213q33 31 142 67q104 39 145 39t41 -14t-18 -33q-63 -66 -112.5 -129t-84.5 -127q-71 -125 -147 -315z" />
<glyph unicode="i" horiz-adv-x="688" d="M627 797q-162 -35 -248 2q-43 20 -43 55t61 72t125 37q33 0 44.5 -10.5t11.5 -32.5v-33q0 -39 49 -90zM541 674q-178 -260 -201 -621l-238 -49q41 350 191 623z" />
<glyph unicode="j" horiz-adv-x="837" d="M756 801q-80 -16 -145.5 -16.5t-108.5 18.5q-43 20 -43 55t61 72q63 37 127 37q59 0 60 -43v-33q0 -39 49 -90zM645 662q-23 -178 -98 -369q-37 -96 -77 -178t-85 -152t-75.5 -114t-47.5 -60q-35 -37 -61 -37q-27 0 -74 72q-45 70 -45 113q0 27 15.5 51t64.5 71 q150 143 194 260q49 119 62 289z" />
<glyph unicode="k" horiz-adv-x="1107" d="M1047 494q-199 -12 -367 -138q66 -72 138.5 -134t154.5 -116l-166 -114q-104 74 -172 137q-70 68 -96.5 106.5t-26.5 63.5q0 43 102 133l27 -31q41 33 85 62t91 57l-6 21q-193 0 -315.5 -99.5t-151.5 -265.5q-8 -49 -16.5 -78.5t-19.5 -46t-26.5 -21.5t-37.5 -5 q-29 0 -86 61q-57 63 -58 84q0 23 41 59q41 37 62 76q20 39 49 170q14 66 31.5 130.5t40.5 129.5q41 129 77 191q39 61 84 88q49 27 133 49q86 23 121 22q20 0 20.5 -14t-14.5 -31q-63 -78 -111 -145.5t-83 -126.5q-33 -59 -65.5 -134t-67.5 -167q117 106 231 160 q117 57 207 57q89 0 191 -190z" />
<glyph unicode="l" horiz-adv-x="661" d="M115 14q-12 39 -12.5 146.5t38.5 281.5t142 371q51 98 83.5 156.5t47.5 74.5q31 35 59.5 35t77.5 -69q49 -72 49 -113q0 -43 -72 -121q-102 -109 -161 -246q-29 -68 -41.5 -134t-14.5 -127.5t3 -115t16 -92.5z" />
<glyph unicode="m" horiz-adv-x="1476" d="M922 518q98 88 197.5 140.5t162.5 52.5q31 0 70 -45q43 -43 43 -72t-37 -102q-90 -178 -103 -412l-231 -51q29 260 182 489l-45 43q-104 -8 -229 -137q-121 -127 -139 -225q-23 -123 -68 -155t-123 48q-47 59 -47 96q0 39 78 121q78 86 115 205l-52 57 q-301 -86 -364 -358q-27 -121 -47 -154q-18 -31 -62 -30q-41 0 -92 55q-49 55 -49 92t47 90q49 55 64 99q16 49 16 126.5t-4 170.5l201 49v-66q0 -37 -4.5 -77t-12.5 -83q55 51 115.5 92t118 69t108.5 43.5t88 15.5q29 0 74 -29q43 -29 43 -51q0 -72 -14 -107z" />
<glyph unicode="n" horiz-adv-x="1052" d="M403 479q92 92 236 160q143 68 227 68q23 0 68 -39q49 -41 49 -60q0 -20 -20 -59q-117 -223 -140 -467l-221 -53q45 293 186 499l-49 52q-145 -49 -250 -142q-102 -90 -116 -147q-57 -266 -121 -266q-14 0 -48 19t-73 65q-39 45 -39 68.5t29 45.5q61 47 78 103 q14 51 14 172q0 115 -6 168l215 41q2 -33 1.5 -87.5t-20.5 -140.5z" />
<glyph unicode="o" horiz-adv-x="995" d="M575 657q180 49 232 50q51 0 78.5 -43t27.5 -119q0 -117 -100 -236q-96 -117 -248 -200q-150 -82 -233 -82q-86 0 -168 73q-82 76 -82 144q0 125 121 262q121 135 303 201zM365 154q147 63 229 148t82 171q0 57 -45 133h-45q-127 -72 -199 -182q-74 -111 -74 -205 q0 -18 6 -49z" />
<glyph unicode="p" horiz-adv-x="1183" d="M588 653q258 260 405 260q47 0 105 -51q57 -49 57 -106q0 -141 -119 -267q-121 -127 -241 -184q-125 -59 -166 -59q-43 0 -70 22.5t-27 50.5q0 74 248 66q143 168 181 330l-66 59q-158 -74 -266 -196q-109 -123 -234 -457q-55 -145 -112 -146q-39 0 -95 72 q-53 72 -53 105.5t33 68.5q184 203 203 301q20 96 14 340l238 39q-6 -66 -15.5 -128.5t-19.5 -119.5z" />
<glyph unicode="q" horiz-adv-x="1144" d="M1083 940q-160 -297 -238.5 -508t-78.5 -309q0 -43 22.5 -67.5t94.5 -55.5q-125 -119 -178 -119q-55 0 -113 51q-59 49 -60 105q0 106 74 264q-92 -78 -159.5 -120t-129.5 -42q-63 0 -139 70t-76 125q0 96 162 252t375 221l170 -68q29 51 53.5 92t42.5 70zM782 680 l-90 39q-231 -102 -348 -357l102 -67q98 55 145.5 89t61.5 50q16 18 48 89t81 157z" />
<glyph unicode="r" horiz-adv-x="819" d="M758 690q-23 -41 -46.5 -90t-47.5 -106l-154 18q-49 -27 -98 -115q-47 -80 -70 -180q-20 -98 -46 -156.5t-60 -58.5q-33 0 -84 64q-49 63 -50 100q0 37 15.5 65.5t54.5 75.5q31 37 31 137q0 82 -3 145.5t-12 110.5l209 52q2 -16 2 -33v-33q0 -51 -6 -100t-16 -101 q61 96 110.5 153.5t94.5 80t87 14.5t89 -43z" />
<glyph unicode="s" horiz-adv-x="1001" d="M920 633l-99 -117q-188 96 -315 96q-49 0 -107 -73q76 -47 185 -99q106 -51 149 -89t43 -81q0 -41 -47 -118q-23 -37 -48.5 -63t-58 -42t-75.5 -23.5t-101 -7.5q-166 0 -364 97l84 133q92 -45 188.5 -70.5t169.5 -25.5q72 0 88 24q14 27 15 37q0 29 -109 82 q-137 66 -206.5 120t-69.5 101q0 55 96 139t227 84q130 0 355 -104z" />
<glyph unicode="t" horiz-adv-x="796" d="M735 643l-33 -86l-272 -4q-78 -209 -78 -317q0 -20 1 -37t3 -29l50 -27q37 6 87 17.5t115 27.5q-10 -51 -35 -71q-27 -23 -120 -60q-98 -35 -158 -34q-59 0 -109 57q-49 57 -49 119q0 100 123 352l-158 -2l33 86l172 4l76 143l174 43l-92 -186z" />
<glyph unicode="u" horiz-adv-x="1019" d="M344 150q328 170 367 425q14 92 29.5 129t47.5 37q35 0 101 -65q66 -66 65 -105q0 -41 -45 -86q-23 -23 -38 -47t-25 -47q-18 -47 -18.5 -132t32.5 -189l-213 -47q-14 68 -14 122t6 105q-250 -225 -426 -225q-37 0 -76 38q-39 39 -39 66t17 66q39 88 63.5 156.5 t38.5 121.5q29 104 37 217l233 55q-37 -268 -196 -528z" />
<glyph unicode="v" horiz-adv-x="1017" d="M350 154q80 59 145.5 121.5t129.5 142.5q33 41 52 64.5t23 33.5q10 20 10.5 35.5t-3.5 26.5q-16 61 -17 100q0 102 88 147q92 45 135 45t43 -51q0 -100 -133 -301q-66 -100 -140.5 -189t-156.5 -167q-164 -158 -215 -158q-49 0 -129 82t-80 137q0 184 113 430l270 60 q-160 -207 -192 -494z" />
<glyph unicode="w" horiz-adv-x="1447" d="M840 182q88 45 209 178q123 131 122 172q0 14 -24 58q-51 92 2 151q27 27 106 84q78 57 104.5 57.5t26.5 -51.5q0 -119 -104 -299q-106 -184 -276 -354q-174 -170 -246 -170q-86 0 -146 238q-41 -45 -89 -85t-107 -79q-115 -74 -160 -74t-100 64q-55 63 -56 153 q0 90 37 217q41 131 99 224l243 49q-82 -119 -131 -260q-47 -145 -47 -246l41 -55q82 45 154 92q35 23 56 38t30 21q14 14 19 28.5t5 45.5q-2 88 15.5 150.5t52.5 101.5t89 58.5t126 23.5q35 0 48 -13.5t13 -50.5t-32.5 -80t-104.5 -104q-33 -27 -33 -64q1 -90 58 -219z" />
<glyph unicode="x" horiz-adv-x="1075" d="M539 500q242 203 309 202q45 0 96 -40q51 -39 51 -80q0 -23 -40 -78t-111 -129l-66 18q16 27 32.5 58.5t33.5 72.5l-31 17q-109 -43 -231 -148q20 -63 64 -144t110 -183l-207 -43q-94 125 -133 237q-131 -113 -275 -332l-59 62q63 104 135 196.5t154 173.5 q-61 172 -62 328l213 51q-6 -120 17 -239z" />
<glyph unicode="y" horiz-adv-x="1060" d="M1012 829q-41 -217 -106.5 -388t-153.5 -300q68 10 102.5 15.5t36.5 5.5l20 -72q-143 -23 -252 -63q-43 -53 -86 -96.5t-86 -71.5q-86 -61 -145 -61.5t-92 32.5q-33 31 -33 88t96.5 107.5t264.5 95.5q59 121 92 223q-244 -221 -410 -221q-70 0 -108 45q-39 45 -39 74 t32 92q51 100 82 210.5t45 233.5l238 51q-47 -240 -184 -518l84 -39q332 129 372 504z" />
<glyph unicode="z" horiz-adv-x="991" d="M909 737l-30 -123q-221 -125 -568 -436q53 8 103.5 12.5t95.5 4.5q47 0 107.5 -4.5t136.5 -12.5l-74 -143q-47 4 -100.5 6t-112.5 2t-139 -7t-181 -22l-65 152q158 98 286 200.5t230 215.5q-94 -14 -194.5 -14.5t-170.5 20.5l52 131q119 -12 258 -12q141 -1 366 30z" />
<glyph unicode="{" horiz-adv-x="1206" d="M1237 1198l-113 -133q-68 37 -368 41l-41 -19q-2 -193 -37 -253q-35 -63 -182 -78q121 -43 120 -133q0 -57 -53 -129q-141 -184 -186 -306l37 -20q254 37 440 37l-61 -144q-39 2 -72 2h-62l-260 -8q-207 0 -206 121q0 88 100 219t141 221q0 45 -112 97q4 23 4 44t-21 60 q63 2 108.5 7t73 19.5t40 40t12.5 68.5q0 18 -2 41t-5.5 43.5t-5.5 38t-2 25.5q0 51 38 75.5t138 34.5q51 4 126 7.5t178 3.5q204 0 233 -23z" />
<glyph unicode="|" horiz-adv-x="450" d="M299 78h-147v1073h147v-1073z" />
<glyph unicode="}" horiz-adv-x="1155" d="M489 1208q66 8 110 11.5t67 3.5q150 0 276 -27q131 -25 131 -102q0 -41 -24 -80q-10 -18 -38 -50t-69 -77q-33 -35 -41 -55.5t6.5 -36t52 -26.5t99.5 -26q-47 -49 -37 -104q-209 -31 -281 -90q61 -311 62 -373q0 -121 -168 -121q-41 0 -88 3t-103 12q-111 14 -193.5 14 t-168.5 -12l65 149q205 -10 431 -55l43 20l-23 193q-18 131 -18 166t47 65q47 33 211 88q-90 29 -111.5 72t18.5 121q27 49 80 98q51 49 52 76q0 29 -101 29q-94 0 -187 -5.5t-188 -15.5z" />
<glyph unicode="~" horiz-adv-x="1638" d="M1571 627q-86 -66 -191 -117q-100 -51 -223 -51q-121 0 -190 18q-35 10 -82 27.5t-107 42.5q-57 25 -99 40t-71 23q-51 14 -110 15q-137 0 -369 -140l-57 119q111 76 209 119t208 43q106 0 177 -16q68 -16 206 -74q174 -72 265 -72q90 0 163 29q35 14 84.5 44t112.5 75z " />
<glyph vert-adv-y="0" />
<glyph horiz-adv-x="2048" vert-adv-y="0" />
<glyph horiz-adv-x="2048" vert-adv-y="0" />
<glyph horiz-adv-x="2048" vert-adv-y="0" />
<glyph horiz-adv-x="2048" vert-adv-y="0" />
<glyph horiz-adv-x="2048" vert-adv-y="0" />
<glyph unicode="&#x85;" horiz-adv-x="2048" vert-adv-y="0" />
<glyph horiz-adv-x="2048" vert-adv-y="0" />
<glyph horiz-adv-x="2048" vert-adv-y="0" />
<glyph horiz-adv-x="2048" vert-adv-y="0" />
<glyph horiz-adv-x="2048" vert-adv-y="0" />
<glyph horiz-adv-x="2048" vert-adv-y="0" />
<glyph horiz-adv-x="2048" vert-adv-y="0" />
<glyph horiz-adv-x="2048" vert-adv-y="0" />
<glyph horiz-adv-x="2048" vert-adv-y="0" />
<glyph horiz-adv-x="2048" vert-adv-y="0" />
<glyph horiz-adv-x="2048" vert-adv-y="0" />
<glyph horiz-adv-x="2048" vert-adv-y="0" />
<glyph horiz-adv-x="2048" vert-adv-y="0" />
<glyph horiz-adv-x="2048" vert-adv-y="0" />
<glyph horiz-adv-x="2048" vert-adv-y="0" />
<glyph horiz-adv-x="2048" vert-adv-y="0" />
<glyph horiz-adv-x="2048" vert-adv-y="0" />
<glyph horiz-adv-x="2048" vert-adv-y="0" />
<glyph horiz-adv-x="2048" vert-adv-y="0" />
<glyph horiz-adv-x="2048" vert-adv-y="0" />
<glyph horiz-adv-x="2048" vert-adv-y="0" />
<glyph horiz-adv-x="2048" vert-adv-y="0" />
<glyph horiz-adv-x="2048" vert-adv-y="0" />
<glyph horiz-adv-x="2048" vert-adv-y="0" />
<glyph horiz-adv-x="2048" vert-adv-y="0" />
<glyph horiz-adv-x="2048" vert-adv-y="0" />
<glyph horiz-adv-x="2048" vert-adv-y="0" />
<glyph unicode="&#xa0;" vert-adv-y="0" />
<glyph unicode="&#xa1;" vert-adv-y="0" />
<glyph unicode="&#xa2;" vert-adv-y="0" />
<glyph unicode="&#xa3;" vert-adv-y="0" />
<glyph unicode="&#xa4;" horiz-adv-x="2048" d="M1483 1053l192 127l66 -90l-189 -121q109 -158 109 -346t-84 -334l184 -119l-65 -90l-183 119q-57 -72 -136 -120t-167 -71.5t-182 -22.5t-183 24.5t-168 71.5t-138 120l-187 -121l-65 90l188 123q-82 145 -82 334q0 186 103 342l-189 121l66 90l192 -125 q188 188 463 188q123 0 243 -49t212 -141zM1026 96q211 0 367 146q154 147 153 370q0 221 -157 373q-156 150 -371 150q-211 0 -363 -146q-150 -143 -149 -375q0 -231 147 -374q150 -144 373 -144z" />
<glyph unicode="&#xa5;" vert-adv-y="0" />
<glyph unicode="&#xa6;" vert-adv-y="0" />
<glyph unicode="&#xa7;" horiz-adv-x="2048" d="M1266 403q113 -88 112 -184q0 -113 -125 -170q-121 -57 -256 -57q-131 0 -199.5 50t-68.5 108q0 39 35 63.5t82 24.5q37 0 63.5 -16.5t39 -39t7 -46t-35.5 -40.5q-4 -4 -5 -4q0 -8 84 -8t152 25q53 20 65.5 55t-12 75t-83 81.5t-146.5 78.5q-287 127 -287 254 q0 98 166 148q-106 80 -106 192q0 115 108 170q106 55 234 56q61 0 114 -12.5t91 -32t59.5 -46t21.5 -57.5q0 -39 -36.5 -66.5t-86.5 -27.5q-37 0 -61.5 16.5t-35.5 38t-7 43t25 33.5q6 2 6 8q0 4 -34 10.5t-61 6.5q-78 0 -143 -35q-63 -35 -63 -82t65 -98q63 -53 203 -105 q141 -51 220 -117.5t79 -130.5q0 -105 -180 -162zM1161 471q98 8 115 39q14 29 14 51q0 20 -45 45t-151 70q-53 23 -86 39t-47 24q-121 -41 -121 -82q0 -18 30.5 -37.5t77.5 -42t103.5 -48t109.5 -58.5z" />
<glyph unicode="&#xa8;" horiz-adv-x="2048" d="M770 1194q49 0 85 -36t36 -85t-36 -85t-85 -36t-85 36t-36 85t36 85t85 36zM1278 1194q49 0 85 -36t36 -85t-36 -85t-85 -36t-85 36t-36 85t36 85t85 36z" />
<glyph unicode="&#xa9;" vert-adv-y="0" />
<glyph unicode="&#xaa;" vert-adv-y="0" />
<glyph unicode="&#xab;" vert-adv-y="0" />
<glyph unicode="&#xac;" vert-adv-y="0" />
<glyph unicode="&#xad;" vert-adv-y="0" />
<glyph unicode="&#xae;" vert-adv-y="0" />
<glyph unicode="&#xaf;" vert-adv-y="0" />
<glyph unicode="&#xb0;" horiz-adv-x="2048" d="M512 1243q82 0 133 -52t51 -132q0 -78 -53 -133.5t-131 -55.5q-37 0 -70.5 15.5t-59.5 41t-41 60.5t-15 72q0 76 53 130t133 54zM512 958q41 0 67.5 29t26.5 70t-27.5 69.5t-68.5 28.5q-39 0 -66.5 -27.5t-27.5 -68.5t27.5 -71t68.5 -30z" />
<glyph unicode="&#xb1;" horiz-adv-x="2048" d="M1612 670h-504v-305h-168v305h-504v131h504v301h168v-301h504v-131zM1612 137h-1176v131h1176v-131z" />
<glyph unicode="&#xb2;" vert-adv-y="0" />
<glyph unicode="&#xb3;" vert-adv-y="0" />
<glyph unicode="&#xb4;" vert-adv-y="0" />
<glyph unicode="&#xb5;" vert-adv-y="0" />
<glyph unicode="&#xb6;" vert-adv-y="0" />
<glyph unicode="&#xb7;" horiz-adv-x="2048" d="M1024 756q53 0 92 -39t39 -92t-39 -92t-92 -39t-92 38.5t-39 92.5q0 53 39 92t92 39z" />
<glyph unicode="&#xb8;" vert-adv-y="0" />
<glyph unicode="&#xb9;" vert-adv-y="0" />
<glyph unicode="&#xba;" vert-adv-y="0" />
<glyph unicode="&#xbb;" vert-adv-y="0" />
<glyph unicode="&#xbc;" vert-adv-y="0" />
<glyph unicode="&#xbd;" vert-adv-y="0" />
<glyph unicode="&#xbe;" vert-adv-y="0" />
<glyph unicode="&#xbf;" vert-adv-y="0" />
<glyph unicode="&#xc0;" vert-adv-y="0" />
<glyph unicode="&#xc1;" vert-adv-y="0" />
<glyph unicode="&#xc2;" vert-adv-y="0" />
<glyph unicode="&#xc3;" vert-adv-y="0" />
<glyph unicode="&#xc4;" vert-adv-y="0" />
<glyph unicode="&#xc5;" vert-adv-y="0" />
<glyph unicode="&#xc6;" vert-adv-y="0" />
<glyph unicode="&#xc7;" vert-adv-y="0" />
<glyph unicode="&#xc8;" vert-adv-y="0" />
<glyph unicode="&#xc9;" vert-adv-y="0" />
<glyph unicode="&#xca;" vert-adv-y="0" />
<glyph unicode="&#xcb;" vert-adv-y="0" />
<glyph unicode="&#xcc;" vert-adv-y="0" />
<glyph unicode="&#xcd;" vert-adv-y="0" />
<glyph unicode="&#xce;" vert-adv-y="0" />
<glyph unicode="&#xcf;" vert-adv-y="0" />
<glyph unicode="&#xd0;" vert-adv-y="0" />
<glyph unicode="&#xd1;" vert-adv-y="0" />
<glyph unicode="&#xd2;" vert-adv-y="0" />
<glyph unicode="&#xd3;" vert-adv-y="0" />
<glyph unicode="&#xd4;" vert-adv-y="0" />
<glyph unicode="&#xd5;" vert-adv-y="0" />
<glyph unicode="&#xd6;" vert-adv-y="0" />
<glyph unicode="&#xd7;" horiz-adv-x="2048" d="M1024 696l541 351l73 -115l-489 -318l489 -317l-73 -115l-541 350l-541 -350l-73 115l489 317l-489 318l73 115z" />
<glyph unicode="&#xd8;" vert-adv-y="0" />
<glyph unicode="&#xd9;" vert-adv-y="0" />
<glyph unicode="&#xda;" vert-adv-y="0" />
<glyph unicode="&#xdb;" vert-adv-y="0" />
<glyph unicode="&#xdc;" vert-adv-y="0" />
<glyph unicode="&#xdd;" vert-adv-y="0" />
<glyph unicode="&#xde;" vert-adv-y="0" />
<glyph unicode="&#xdf;" vert-adv-y="0" />
<glyph unicode="&#xe0;" horiz-adv-x="1048" d="M954 803l-10 -47q-203 29 -320.5 48t-156.5 30q-76 25 -76 77q0 72 70 72q23 0 63 -10q39 -10 170 -62q66 -27 131.5 -53t128.5 -55zM758 635q72 63 96 63q25 0 72 -39q51 -37 51 -70.5t-27 -66.5q-39 -49 -62.5 -80.5t-33.5 -48.5q-18 -31 -18 -51q0 -33 5 -69.5 t15 -71.5t24.5 -66t32.5 -51l-200 -49q-53 74 -70 217q-104 -104 -199.5 -160.5t-158.5 -56.5q-59 0 -142 71q-80 70 -80 121q0 90 152 242q156 154 385 248zM723 578l-53 30q-289 -133 -396 -399l70 -62q147 66 291 215q25 112 88 216z" />
<glyph unicode="&#xe1;" horiz-adv-x="1048" d="M954 942q-397 -180 -493 -180q-70 0 -70 72q0 51 82 77q41 14 158 34t313 44zM758 635q72 63 96 63q25 0 72 -39q51 -37 51 -70.5t-27 -66.5q-39 -49 -62.5 -80.5t-33.5 -48.5q-18 -31 -18 -51q0 -33 5 -69.5t15 -71.5t24.5 -66t32.5 -51l-200 -49q-53 74 -70 217 q-104 -104 -199.5 -160.5t-158.5 -56.5q-59 0 -142 71q-80 70 -80 121q0 90 152 242q156 154 385 248zM723 578l-53 30q-289 -133 -396 -399l70 -62q147 66 291 215q25 112 88 216z" />
<glyph unicode="&#xe2;" vert-adv-y="0" />
<glyph unicode="&#xe3;" vert-adv-y="0" />
<glyph unicode="&#xe4;" vert-adv-y="0" />
<glyph unicode="&#xe5;" vert-adv-y="0" />
<glyph unicode="&#xe6;" vert-adv-y="0" />
<glyph unicode="&#xe7;" vert-adv-y="0" />
<glyph unicode="&#xe8;" horiz-adv-x="960" d="M852 803l-10 -47q-379 51 -467 73q-88 20 -88 76q0 25 15 50.5t56 25.5q82 0 494 -178zM815 279l-6 -56q-4 -29 -23 -43q-14 -12 -112 -53q-47 -18 -96.5 -34.5t-96.5 -30t-88 -20.5t-71 -7q-86 0 -172 67q-86 68 -87 127q0 135 150 310q152 176 477 176q111 0 151 -30 t40 -112q0 -80 -47 -122q-45 -43 -164 -70q-59 -14 -153.5 -29.5t-229.5 -34.5q12 -102 110 -165q213 39 418 127zM672 551v86l-215 -27q-78 -96 -148 -215q117 8 187.5 20.5t109.5 31t52.5 43t13.5 61.5z" />
<glyph unicode="&#xe9;" horiz-adv-x="960" d="M893 942q-410 -178 -492 -178q-72 0 -71 67q0 35 33.5 58.5t138.5 42.5l381 57zM815 279l-6 -56q-4 -29 -23 -43q-14 -12 -112 -53q-47 -18 -96.5 -34.5t-96.5 -30t-88 -20.5t-71 -7q-86 0 -172 67q-86 68 -87 127q0 135 150 310q152 176 477 176q111 0 151 -30t40 -112 q0 -80 -47 -122q-45 -43 -164 -70q-59 -14 -153.5 -29.5t-229.5 -34.5q12 -102 110 -165q213 39 418 127zM672 551v86l-215 -27q-78 -96 -148 -215q117 8 187.5 20.5t109.5 31t52.5 43t13.5 61.5z" />
<glyph unicode="&#xea;" horiz-adv-x="985" d="M879 782l-43 -41l-252 154l-256 -154l-43 41l297 297zM815 279l-6 -56q-4 -29 -23 -43q-14 -12 -112 -53q-47 -18 -96.5 -34.5t-96.5 -30t-88 -20.5t-71 -7q-86 0 -172 67q-86 68 -87 127q0 135 150 310q152 176 477 176q111 0 151 -30t40 -112q0 -80 -47 -122 q-45 -43 -164 -70q-59 -14 -153.5 -29.5t-229.5 -34.5q12 -102 110 -165q213 39 418 127zM672 551v86l-215 -27q-78 -96 -148 -215q117 8 187.5 20.5t109.5 31t52.5 43t13.5 61.5z" />
<glyph unicode="&#xeb;" vert-adv-y="0" />
<glyph unicode="&#xec;" horiz-adv-x="731" d="M670 756l-23 -47q-375 96 -434 122q-59 29 -59 74q0 25 17 47.5t46 22.5q33 0 64 -14q37 -14 151 -74q117 -59 238 -131zM524 674q-178 -260 -200 -621l-238 -49q41 350 190 623z" />
<glyph unicode="&#xed;" horiz-adv-x="710" d="M645 909q-117 -66 -196.5 -109.5t-126.5 -66.5q-92 -45 -127 -45q-31 0 -45.5 25.5t-14.5 48.5q0 45 58 72q29 14 136 45.5t298 78.5zM504 674q-178 -260 -201 -621l-237 -49q41 350 190 623z" />
<glyph unicode="&#xee;" vert-adv-y="0" />
<glyph unicode="&#xef;" vert-adv-y="0" />
<glyph unicode="&#xf0;" vert-adv-y="0" />
<glyph unicode="&#xf1;" vert-adv-y="0" />
<glyph unicode="&#xf2;" horiz-adv-x="960" d="M893 807l-10 -47q-203 27 -321 46t-156 32q-76 25 -76 77q0 70 78 70q79 0 485 -178zM563 657q180 49 232 50q51 0 78.5 -43t27.5 -119q0 -117 -100 -236q-96 -117 -248 -200q-150 -82 -234 -82q-86 0 -167 73q-82 76 -82 144q0 125 120 262q121 135 304 201zM352 154 q147 63 229.5 148t82.5 171q0 57 -46 133h-45q-127 -72 -198 -182q-74 -111 -74 -205q0 -18 6 -49z" />
<glyph unicode="&#xf3;" horiz-adv-x="966" d="M893 942q-410 -180 -487 -180q-76 0 -76 69q0 29 22 52q25 23 64 30q20 4 67 13.5t121 19.5l279 43zM563 657q180 49 232 50q51 0 78.5 -43t27.5 -119q0 -117 -100 -236q-96 -117 -248 -200q-150 -82 -234 -82q-86 0 -167 73q-82 76 -82 144q0 125 120 262 q121 135 304 201zM352 154q147 63 229.5 148t82.5 171q0 57 -46 133h-45q-127 -72 -198 -182q-74 -111 -74 -205q0 -18 6 -49z" />
<glyph unicode="&#xf4;" vert-adv-y="0" />
<glyph unicode="&#xf5;" vert-adv-y="0" />
<glyph unicode="&#xf6;" vert-adv-y="0" />
<glyph unicode="&#xf7;" horiz-adv-x="2048" d="M1026 1024q49 0 85 -36t36 -85t-36 -85t-85 -36t-85 36t-36 85t36 85t85 36zM1686 526h-1324v140h1324v-140zM1026 412q49 0 85 -36t36 -85t-36 -85t-85 -36t-85 36t-36 85t36 85t85 36z" />
<glyph unicode="&#xf8;" vert-adv-y="0" />
<glyph unicode="&#xf9;" horiz-adv-x="993" d="M891 823l-10 -47q-395 51 -478 78q-76 27 -75 78q0 72 71 72q76 -1 492 -181zM317 150q328 170 367 425q14 92 29.5 129t48.5 37q35 0 100 -65q66 -66 66 -105q0 -41 -45 -86q-23 -23 -38.5 -47t-25.5 -47q-18 -47 -18 -132t33 -189l-213 -47q-14 68 -14.5 122t5.5 105 q-250 -225 -426 -225q-37 0 -75 38q-39 39 -39 66t16 66q39 88 63.5 156.5t38.5 121.5q29 104 37 217l234 55q-37 -268 -197 -528z" />
<glyph unicode="&#xfa;" horiz-adv-x="1001" d="M913 963q-397 -180 -493 -181q-70 0 -70 72q0 51 82 78q41 14 158 33.5t313 44.5zM317 150q328 170 367 425q14 92 29.5 129t48.5 37q35 0 100 -65q66 -66 66 -105q0 -41 -45 -86q-23 -23 -38.5 -47t-25.5 -47q-18 -47 -18 -132t33 -189l-213 -47q-14 68 -14.5 122 t5.5 105q-250 -225 -426 -225q-37 0 -75 38q-39 39 -39 66t16 66q39 88 63.5 156.5t38.5 121.5q29 104 37 217l234 55q-37 -268 -197 -528z" />
<glyph unicode="&#xfb;" vert-adv-y="0" />
<glyph unicode="&#xfc;" horiz-adv-x="1019" d="M848 969q37 0 65.5 -29t28.5 -66t-28.5 -65.5t-65.5 -28.5t-65.5 29t-28.5 65q0 37 28.5 66t65.5 29zM395 969q37 0 65.5 -29t28.5 -66t-28.5 -65.5t-65.5 -28.5t-65.5 29t-28.5 65q0 37 28.5 66t65.5 29zM330 150q328 170 366 425q14 92 29.5 129t48.5 37q35 0 100 -65 q66 -66 66 -105q0 -41 -45 -86q-23 -23 -38 -47t-26 -47q-18 -47 -18 -132t33 -189l-213 -47q-14 68 -14.5 122t6.5 105q-250 -225 -426 -225q-37 0 -76 38q-39 39 -39 66t16 66q39 88 63.5 156.5t39.5 121.5q29 104 37 217l233 55q-37 -268 -197 -528z" />
<glyph unicode="&#xfd;" vert-adv-y="0" />
<glyph unicode="&#xfe;" vert-adv-y="0" />
<glyph unicode="&#xff;" vert-adv-y="0" />
<glyph unicode="&#x2000;" horiz-adv-x="792" vert-adv-y="0" />
<glyph unicode="&#x2001;" horiz-adv-x="1585" vert-adv-y="0" />
<glyph unicode="&#x2002;" horiz-adv-x="792" vert-adv-y="0" />
<glyph unicode="&#x2003;" horiz-adv-x="1585" vert-adv-y="0" />
<glyph unicode="&#x2004;" horiz-adv-x="528" vert-adv-y="0" />
<glyph unicode="&#x2005;" horiz-adv-x="396" vert-adv-y="0" />
<glyph unicode="&#x2006;" horiz-adv-x="264" vert-adv-y="0" />
<glyph unicode="&#x2007;" horiz-adv-x="264" vert-adv-y="0" />
<glyph unicode="&#x2008;" horiz-adv-x="198" vert-adv-y="0" />
<glyph unicode="&#x2009;" horiz-adv-x="317" vert-adv-y="0" />
<glyph unicode="&#x200a;" horiz-adv-x="88" vert-adv-y="0" />
<glyph unicode="&#x2010;" horiz-adv-x="1042" d="M1001 432h-958v141h958v-141z" />
<glyph unicode="&#x2011;" horiz-adv-x="1042" d="M1001 432h-958v141h958v-141z" />
<glyph unicode="&#x2012;" horiz-adv-x="1042" d="M1001 432h-958v141h958v-141z" />
<glyph unicode="&#x2013;" horiz-adv-x="1108" d="M1067 432h-1024v141h1024v-141z" />
<glyph unicode="&#x2014;" horiz-adv-x="2048" d="M2048 547h-2048v135h2048v-135z" />
<glyph unicode="&#x2018;" horiz-adv-x="2048" d="M1942 1274q0 -8 -13 -23q-37 -45 -59 -112q-10 -31 -14.5 -55.5t-4.5 -49t7.5 -51.5t21.5 -63q6 -16 6 -37t-28 -41q-29 -18 -77 -18.5t-87 16.5q-39 16 -39 80.5t43 152.5t131 146q90 59 108 59q5 0 5 -4z" />
<glyph unicode="&#x2019;" horiz-adv-x="2048" d="M410 1180q0 -70 -43 -158t-134 -148q-88 -57 -106 -57q-4 0 -4 4q0 6 24.5 38t45.5 95q20 61 20 107q0 41 -29 115q-6 16 -6 36.5t29 38.5q18 12 53 18.5t68.5 0.5t58.5 -26.5t23 -63.5z" />
<glyph unicode="&#x201c;" horiz-adv-x="2048" d="M1946 1266q0 -2 -7 -11q-20 -23 -34.5 -51t-24.5 -61q-10 -31 -15 -56.5t-5 -51t7 -53.5t21 -64q6 -14 6 -34t-26 -38q-18 -10 -51 -15.5t-65 1t-55.5 24.5t-23.5 59q0 72 41 154q41 80 125 139t105 60q2 0 2 -2zM1634 1266q0 -2 -6 -11q-20 -23 -34.5 -51t-24.5 -61 q-10 -31 -15.5 -56.5t-5.5 -51t7.5 -53.5t21.5 -64q6 -14 6 -34t-27 -38q-18 -10 -50.5 -15.5t-64.5 1t-55.5 24.5t-23.5 59q0 72 41 154q41 80 125 139t104 60q2 0 2 -2z" />
<glyph unicode="&#x201d;" horiz-adv-x="2048" d="M696 1167q0 -74 -43 -155q-41 -82 -123 -140q-82 -57 -104 -57q-6 0 4 12q37 45 59 113q10 33 15.5 58.5t5.5 50t-7 52t-22 64.5q-6 14 -6 34t27 36q18 10 51 16t64.5 0t55 -25.5t23.5 -58.5zM385 1167q0 -74 -43 -155q-41 -82 -123 -140q-82 -57 -104 -57q-6 0 4 12 q37 45 59 113q10 33 15.5 58.5t5.5 50t-7.5 52t-21.5 64.5q-6 14 -6 34t26 36q18 10 51 16t65 0t55.5 -25.5t23.5 -58.5z" />
<glyph unicode="&#x2026;" horiz-adv-x="2048" d="M340 735q49 0 86 -35.5t37 -85.5q0 -49 -37 -84.5t-86 -35.5t-85 35.5t-36 84.5t36 85t85 36zM1024 735q49 0 86 -35.5t37 -85.5q0 -49 -37 -84.5t-86 -35.5t-85 35.5t-36 84.5t36 85t85 36zM1706 735q49 0 86 -35.5t37 -85.5q0 -49 -37 -84.5t-86 -35.5t-85 35.5 t-36 84.5t36 85t85 36z" />
<glyph unicode="&#x202f;" horiz-adv-x="317" vert-adv-y="0" />
<glyph unicode="&#x205f;" horiz-adv-x="396" vert-adv-y="0" />
<glyph unicode="&#x25fc;" horiz-adv-x="737" vert-adv-y="1474" d="M0 737h737v-737h-737v737z" />
</font>
</defs>
</svg>
