<?xml version="1.0" encoding="UTF-8" standalone="no"?>
<svg width="84px" height="61px" viewBox="0 0 84 61" version="1.1" xmlns="http://www.w3.org/2000/svg" xmlns:xlink="http://www.w3.org/1999/xlink">
    <!-- Generator: Sketch 3.6.1 (26313) - http://www.bohemiancoding.com/sketch -->
    <title>On-the-beach</title>
    <desc>Created with Sketch.</desc>
    <defs></defs>
    <g id="Page-1" stroke="none" stroke-width="1" fill="none" fill-rule="evenodd">
        <g id="Desktop-Copy-6" transform="translate(-470.000000, -29.000000)" fill="#524831">
            <path d="M475.637832,81.3245261 C476.635393,81.1877894 477.570075,81.1002152 478.487642,80.9241003 C479.789642,80.6740607 480.737676,79.5285894 480.811116,78.2119558 C480.854694,77.4320013 480.273127,76.72573 479.577457,76.7567736 C479.020653,76.7816567 478.446855,76.7891459 477.916393,76.9340964 C477.436549,77.0651558 476.732503,77.2709855 476.602376,77.6195914 C476.177156,78.7580567 475.968855,79.9768488 475.637832,81.3245261 M475.512197,81.8331815 C475.493382,81.8895914 475.474445,81.9458805 475.45563,82.0021696 C475.409382,82.1140231 475.350873,82.2223736 475.318948,82.3380924 C474.89652,83.8671993 474.475064,85.3966686 474.060526,86.9279498 C473.981867,87.2186964 473.870676,87.5386746 474.280237,87.6959459 C474.559185,87.8029676 474.844324,87.8941657 475.122179,88.0037241 C476.190266,88.4248053 477.224,88.3697241 478.088277,87.5939973 C479.334318,86.4755835 479.850942,84.9807815 479.893064,83.3608389 C479.918676,82.3784369 479.354104,81.8888666 478.353994,81.8426033 C477.40863,81.7988765 476.459624,81.8331815 475.512197,81.8331815 M477.255075,75.5971696 C477.171439,75.9121954 477.106861,76.1555914 477.009509,76.5226785 C477.257017,76.4069597 477.436549,76.3157617 477.621786,76.23773 C478.899387,75.6991181 480.212555,75.2457855 481.617734,75.4034191 C482.524618,75.5050053 483.414994,75.7378924 483.833538,76.7469894 C484.361329,78.0188092 483.563936,80.6701954 481.836353,81.0979201 C481.650145,81.1439419 481.477896,81.2458904 481.180254,81.3726013 C481.381757,81.4340845 481.44852,81.4679063 481.517468,81.4733419 C483.000699,81.5915973 483.331601,82.9544944 483.157896,84.0103379 C482.955786,85.238431 482.626705,86.4149459 481.963809,87.4827478 C481.23585,88.6551558 480.178081,89.338235 478.819636,89.5513122 C476.970179,89.8414548 475.281075,89.41373 473.739821,88.3330033 C473.67148,88.4541577 473.58748,88.5372627 473.579954,88.6268904 C473.512584,89.4215815 473.060538,89.538629 472.35722,89.4212191 C471.822266,89.3319538 471.262064,89.3979063 470.713514,89.3825657 C470.500237,89.3765261 470.287931,89.337027 470,89.3041716 C470.233913,88.4974013 470.445249,87.7685419 470.656705,87.0398033 C471.526688,84.0404152 472.403347,81.0429597 473.261676,78.0401894 C473.447884,77.3887577 473.549607,76.71353 473.731566,76.0606488 C473.780607,75.8846548 473.976162,75.6227775 474.112723,75.6175835 C475.119873,75.5798964 476.129208,75.5971696 477.255075,75.5971696 Z M544.62038,80.7768427 L549.287479,80.7768427 C549.712213,79.3000387 550.133305,77.8900328 550.516525,76.4698803 C550.625895,76.0646229 550.806276,75.9031239 551.234166,75.9168942 C552.102328,75.9446764 552.971947,75.925108 553.924473,75.925108 C553.885143,76.1729734 553.876403,76.3472764 553.828698,76.5101041 C553.33538,78.1944288 552.82786,79.8746466 552.340005,81.5605417 C551.666669,83.8872387 551.006565,86.2176803 550.341606,88.5467932 C550.241461,88.8979358 550.250929,89.41251 550.021022,89.5598764 C549.75312,89.7316427 549.277525,89.5726803 548.892242,89.5755793 C548.445536,89.5790823 547.999074,89.6094011 547.552369,89.614112 C547.345039,89.6162863 547.137346,89.5852427 546.831814,89.5616882 C547.544357,87.1024823 548.228739,84.7408764 548.928901,82.3244308 C547.377814,82.1176348 545.862658,81.9155496 544.257554,81.7015061 C543.527288,84.344316 542.809768,86.9407417 542.076467,89.5943021 L538.665363,89.5943021 C538.859461,88.9563991 539.039114,88.3930249 539.20238,87.8250605 C540.06508,84.8242229 540.927051,81.8231437 541.781739,78.8198902 C542.006912,78.0284605 542.20975,77.2307496 542.413438,76.4334011 C542.518438,76.0224664 542.733779,75.8387417 543.193473,75.8587932 C544.062727,75.8966011 544.934895,75.8696645 545.904779,75.8696645 C545.46475,77.5507278 545.050577,79.1329833 544.62038,80.7768427 Z M510.149997,58.3141906 L514.817095,58.3141906 C515.241829,56.8373866 515.662922,55.4273807 516.046142,54.0072282 C516.155512,53.6019708 516.335893,53.4404718 516.763783,53.4542421 C517.631945,53.4820243 518.501564,53.462456 519.45409,53.462456 C519.41476,53.7103213 519.40602,53.8846243 519.358315,54.047452 C518.864997,55.7317767 518.357477,57.4119946 517.869621,59.0978896 C517.196286,61.4245866 516.536182,63.7550282 515.871223,66.0841411 C515.771078,66.4352837 515.780546,66.9498579 515.550639,67.0972243 C515.282737,67.2689906 514.807142,67.1100282 514.421858,67.1129272 C513.975153,67.1164302 513.528691,67.146749 513.081986,67.1514599 C512.874656,67.1536342 512.666962,67.1225906 512.361431,67.0990362 C513.073974,64.6398302 513.758355,62.2782243 514.458517,59.8617787 C512.907431,59.6549827 511.392275,59.4528975 509.787171,59.238854 C509.056905,61.8816639 508.339384,64.4780896 507.606084,67.13165 L504.19498,67.13165 C504.389078,66.493747 504.568731,65.9303728 504.731997,65.3624084 C505.594697,62.3615708 506.456668,59.3604916 507.311355,56.3572381 C507.536529,55.5658084 507.739367,54.7680975 507.943055,53.970749 C508.048055,53.5598144 508.263396,53.3760896 508.72309,53.3961411 C509.592344,53.433949 510.464512,53.4070124 511.434396,53.4070124 C510.994367,55.0880758 510.580194,56.6703312 510.149997,58.3141906 Z M517.981917,32.8340195 C517.647373,36.1344215 517.312709,39.4347027 516.972824,42.7878908 L513.670726,42.7878908 C513.841518,42.2371997 513.982813,41.7426769 514.147899,41.2560057 C514.737963,39.5163581 515.352668,37.7848037 515.926102,36.0398413 C516.405824,34.5794651 516.912252,33.1209007 517.256628,31.6271859 C517.375223,31.1126116 517.047599,30.4928274 516.908125,29.9248631 C516.857992,29.7206037 516.761732,29.5275779 516.668021,29.2807997 C517.227373,29.2807997 517.703454,29.2756057 518.179171,29.2834571 C518.361373,29.2864769 518.553287,29.3669245 518.723472,29.3310492 C519.932853,29.0766611 520.378951,29.7890928 520.764599,30.7624354 C521.590032,32.8458571 522.5042,34.8944908 523.375882,36.9599146 C523.705691,37.7414393 524.016686,38.5308156 524.341154,39.3145146 C524.390437,39.4332532 524.46679,39.5408789 524.652634,39.6405324 C524.78094,38.469574 524.91131,37.2987364 525.036703,36.1275364 C525.13357,35.2224413 525.229345,34.3172255 525.316501,33.4111641 C525.425871,32.2734235 525.530142,31.1351997 525.627859,29.9964928 C525.656871,29.6577918 525.796951,29.4687522 526.162691,29.4873542 C526.994073,29.5297522 527.825818,29.565869 528.687911,29.605972 C528.716073,29.7160136 528.795582,29.8444156 528.764992,29.9365799 C528.485923,30.7769304 528.166188,31.6042354 527.899136,32.4482096 C527.139859,34.8476235 526.387258,37.2493324 525.658813,39.6582888 C525.401472,40.509269 525.230194,41.3764354 525.793674,42.2062769 C525.933148,42.4117443 525.977212,42.681473 526.055264,42.894671 C525.971506,42.9719779 525.942738,43.0216235 525.913847,43.0217443 C524.886183,43.0274215 523.858397,43.0254888 522.830732,43.0315284 C522.462321,43.0337027 522.317871,42.8905641 522.164923,42.5139344 C521.233275,40.2188849 520.228553,37.9533086 519.263402,35.6714255 C518.86416,34.7274354 518.502911,33.7675007 518.124425,32.8148136 C518.076842,32.8212156 518.029379,32.8276175 517.981917,32.8340195 Z M503.859053,43.5007211 C502.912232,43.295133 501.945382,43.1541686 501.023082,42.8698241 C499.337619,42.3504181 498.240642,40.9500756 498.290532,39.2124815 C498.363001,36.6927587 498.916162,34.2647171 500.26611,32.0858696 C501.168261,30.6294795 502.494538,29.7716142 504.157787,29.2827686 C505.860729,28.7822063 507.465833,28.9666558 509.004902,29.6746181 C511.203833,30.6860102 512.118365,32.6444122 511.54481,35.2097944 C511.152729,36.9640577 510.433631,38.5988577 509.744394,40.2615607 C508.949914,42.1782894 505.799671,43.6140241 503.859053,43.5007211 Z M501.343301,39.8447072 C501.304336,41.0366835 501.855555,42.0516993 502.789145,42.4458439 C503.605596,42.7905845 504.46344,42.6005785 505.062001,42.0245211 C505.645145,41.4634419 506.171359,40.7520973 506.467665,40.0064478 C507.111018,38.387834 507.661873,36.7239231 508.114162,35.0422558 C508.416053,33.9196142 508.837873,32.7960063 508.463758,31.5487072 C508.258492,30.8645409 508.103359,30.2799072 507.373579,30.0234657 C506.510029,29.7199152 505.68666,29.6205033 504.917186,30.2956102 C503.992579,31.1070914 503.407492,32.1107528 502.971347,33.247527 C502.134261,35.4295152 501.534001,37.6601825 501.343301,39.8447072 Z M491.021655,88.2041544 C490.884002,88.6280138 490.760916,89.0066969 490.618164,89.4465009 C489.68506,89.4465009 488.755598,89.4589425 487.826985,89.4398573 C487.486372,89.4328514 487.468043,89.2171167 487.561754,88.9252831 C487.901274,87.8681108 488.224528,86.8056237 488.542563,85.7418078 C489.287395,83.2503504 490.033806,80.7592554 490.760673,78.2626039 C490.939962,77.6468059 491.052852,77.0113187 491.185407,76.3827167 C491.270257,75.979996 491.491182,75.836495 491.915066,75.8291266 C492.780072,75.8140276 493.643985,75.7306811 494.602095,75.6694395 C494.500615,76.0627385 494.415765,76.3916554 494.292679,76.8690257 C495.139234,76.6032831 495.853598,76.344788 496.586291,76.1578019 C497.467563,75.932887 498.356482,75.6975841 499.256812,75.5962395 C500.383407,75.4694078 501.459869,76.5496514 501.152395,77.9317544 C501.12569,78.0514593 500.955991,78.2198435 500.843829,78.2269702 C500.307783,78.2611544 499.768702,78.2489544 499.230592,78.2506455 C498.706199,78.2523365 498.181927,78.2510078 497.583488,78.2510078 C497.702326,77.2124375 496.969268,77.3804593 496.382361,77.3936257 C495.752361,77.4076375 495.120661,77.4628395 494.496609,77.5489643 C494.31817,77.5734851 494.062043,77.7363128 494.014216,77.8892356 C493.692661,78.9170554 493.417719,79.9592494 493.07917,81.1703108 C493.59276,80.9818752 493.959106,80.8409108 494.329823,80.7125088 C495.494655,80.3090633 496.617731,79.7834969 497.906621,79.8145405 C499.090632,79.8430474 500.040609,80.4384316 499.862049,81.6858514 C499.834979,81.8746494 499.898222,82.0761306 499.926141,82.3307603 C498.770898,82.4006989 497.617962,82.470396 496.440991,82.5415425 C496.394014,82.3184395 496.351164,82.1860514 496.340725,82.0511266 C496.311956,81.6815029 496.113124,81.4863029 495.748234,81.5058712 C494.895488,81.551893 494.042499,81.6039544 493.193153,81.6885088 C493.049551,81.7027623 492.842465,81.8665564 492.801314,82.0022059 C492.248274,83.8267702 491.719632,85.6587029 491.146563,87.6198831 C492.322927,87.392794 493.306407,87.2002514 494.290979,87.0135068 C496.040777,86.6814494 497.79191,86.3565187 499.540979,86.0210791 C500.163089,85.9017365 500.29358,86.0242197 500.127158,86.6331326 C499.887297,87.5103247 499.628257,88.3824435 499.394829,89.2613266 C499.309736,89.5820296 499.146592,89.6900177 498.819939,89.6187504 C498.245049,89.4933682 497.66591,89.3867088 497.087135,89.2790831 C495.294609,88.9458177 493.501719,88.6143643 491.708343,88.2860514 C491.510361,88.249693 491.307887,88.237493 491.021655,88.2041544 Z M525.31082,66.0126684 C525.173166,66.4365278 525.05008,66.815211 524.907328,67.255015 C523.974224,67.255015 523.044762,67.2674565 522.116149,67.2483714 C521.775536,67.2413655 521.757207,67.0256308 521.850918,66.7337971 C522.190438,65.6766249 522.513692,64.6141377 522.831727,63.5503219 C523.57656,61.0588645 524.32297,58.5677694 525.049837,56.0711179 C525.229126,55.4553199 525.342016,54.8198328 525.474571,54.1912308 C525.559421,53.7883892 525.780346,53.645009 526.20423,53.6376407 C527.069236,53.6225417 527.933149,53.5391952 528.891259,53.4779536 C528.789779,53.8712526 528.704929,54.2001694 528.581843,54.6775397 C529.428398,54.4117971 530.142762,54.1533021 530.875455,53.966316 C531.756727,53.7414011 532.645646,53.5060981 533.545976,53.4047536 C534.672571,53.2779219 535.749034,54.3581655 535.44156,55.7402684 C535.414854,55.8599734 535.245155,56.0283575 535.132993,56.0354843 C534.596947,56.0696684 534.057866,56.0574684 533.519756,56.0591595 C532.995363,56.0608506 532.471091,56.0595219 531.872652,56.0595219 C531.99149,55.0209516 531.258432,55.1889734 530.671525,55.2021397 C530.041525,55.2161516 529.409825,55.2713536 528.785773,55.3574783 C528.607334,55.3819991 528.351207,55.5448268 528.30338,55.6977496 C527.981825,56.7255694 527.706883,57.7677635 527.368334,58.9788249 C527.881924,58.7903892 528.248271,58.6494249 528.618987,58.5210229 C529.78382,58.1175773 530.906895,57.592011 532.195785,57.6230546 C533.379797,57.6515615 534.329773,58.2469457 534.151213,59.4943655 C534.124143,59.6831635 534.187386,59.8846447 534.215305,60.1392744 C533.060062,60.209213 531.907126,60.27891 530.730155,60.3500565 C530.683178,60.1269536 530.640328,59.9945655 530.629889,59.8596407 C530.60112,59.4900169 530.402288,59.2948169 530.037398,59.3143853 C529.184652,59.360407 528.331664,59.4124684 527.482317,59.4970229 C527.338716,59.5112764 527.131629,59.6750704 527.090479,59.8107199 C526.537438,61.6352843 526.008797,63.4672169 525.435727,65.4283971 C526.612091,65.201308 527.595571,65.0087655 528.580143,64.8220209 C530.329941,64.4899635 532.081074,64.1650328 533.830143,63.8295932 C534.452253,63.7102506 534.582745,63.8327338 534.416323,64.4416466 C534.176461,65.3188387 533.917421,66.1909575 533.683993,67.0698407 C533.598901,67.3905437 533.435756,67.4985318 533.109103,67.4272645 C532.534213,67.3018823 531.955074,67.1952229 531.376299,67.0875971 C529.583773,66.7543318 527.790883,66.4228783 525.997508,66.0945655 C525.799525,66.058207 525.597051,66.046007 525.31082,66.0126684 Z M508.870563,85.4337518 C508.495112,86.2010231 508.100118,87.0071894 507.706702,87.8139597 C507.662274,87.9049162 507.615904,87.9969597 507.588228,88.0935934 C507.235476,89.324827 506.456534,89.8296171 505.16643,89.5760746 C504.76039,89.496231 504.324973,89.563633 503.741343,89.563633 C503.971251,89.1789102 504.114245,88.904229 504.290135,88.652136 C504.758326,87.981136 505.250309,87.3265637 505.713765,86.6523023 C506.004731,86.2288053 506.24265,85.7689498 506.536407,85.3475063 C507.678297,83.7096864 508.82917,82.078027 509.984413,80.4495082 C510.67195,79.4802726 511.395054,78.5353162 512.05358,77.5473577 C512.20932,77.3136251 512.195239,76.952336 512.211627,76.6472152 C512.224736,76.405027 512.165135,76.1590944 512.135274,75.8916607 L515.394037,75.8916607 C516.18791,80.4505954 516.96843,84.9327063 517.762667,89.4930904 C517.493916,89.5347637 517.286343,89.591536 517.078043,89.5950389 C516.345713,89.6072389 515.612655,89.5873082 514.880812,89.6079637 C514.522598,89.6181102 514.320973,89.5554191 514.275696,89.1354251 C514.179314,88.2408389 513.995898,87.3553122 513.903765,86.4604845 C513.857881,86.0135538 513.640719,85.8800785 513.242812,85.844928 C511.811049,85.7182171 510.380499,85.5770112 508.870563,85.4337518 Z M509.227077,84.7294132 C510.523129,84.5435142 511.72365,84.3832231 512.919072,84.1920092 C513.25495,84.1383775 513.431447,83.9190191 513.356187,83.5347795 C513.2558,83.0225003 513.199962,82.5017657 513.112927,81.9867082 C512.917372,80.8306072 512.714534,79.675835 512.493973,78.4012369 C511.370049,80.5785142 510.317499,82.6172429 509.227077,84.7294132 Z M532.317221,83.6772175 C533.003059,84.1477027 533.76355,84.6694037 534.651255,85.2784373 C534.434215,85.6481819 534.260024,86.1126274 533.945995,86.4471007 C533.119591,87.327071 532.288816,88.2192413 531.35462,88.9784195 C530.292602,89.8415997 528.940591,89.9186651 527.637741,89.8702274 C526.32955,89.8215482 525.080111,89.5160651 524.042614,88.592368 C523.384938,88.0068888 523.039348,87.2862433 522.850591,86.4762116 C522.500388,84.9734373 522.795117,83.5030354 523.280059,82.0904928 C523.704308,80.8541859 524.256984,79.6581027 524.805776,78.4684215 C525.32944,77.3334591 526.273227,76.5961443 527.395209,76.1058492 C529.439978,75.2123502 531.479284,75.0105066 533.503782,76.2187898 C534.362961,76.731673 535.556198,78.3076472 535.27288,79.3680809 L532.106492,79.3680809 C532.162209,78.9732116 532.236255,78.6421205 532.250336,78.3086136 C532.28044,77.5931621 532.168521,76.9083918 531.456706,76.5345403 C530.753388,76.1650373 530.095105,76.2406532 529.398464,76.6903621 C528.48199,77.2818809 528.124261,78.1884255 527.803435,79.1216651 C527.38562,80.3368334 527.004706,81.5666175 526.661787,82.8048571 C526.360747,83.892469 526.106198,84.9951799 525.889036,86.1024809 C525.810498,86.5033898 525.871799,86.940174 525.917926,87.3553364 C526.09503,88.9519661 527.41451,89.1209542 528.424938,88.8727264 C529.257897,88.6682255 529.862891,88.089269 530.281799,87.409572 C530.998469,86.2465859 531.598123,85.0122116 532.317221,83.6772175 Z M489.624002,53.3946312 L502.575176,53.3946312 C502.341869,54.1754312 502.120216,54.9174569 501.898442,55.6594827 C501.494101,57.0122332 501.494101,57.0100589 500.080182,56.9652451 C499.73969,56.9544946 499.398592,56.9636748 498.948124,56.9636748 C499.011973,56.5231461 499.039892,56.1494154 499.123043,55.788247 C499.458436,54.3323401 499.420077,54.2686827 497.922523,54.0855619 C497.786447,54.0688926 497.646488,54.0832668 497.514054,54.0832668 C497.069655,55.6891975 496.638731,57.277855 496.188748,58.8610767 C495.901788,59.8707777 495.574043,60.8690035 495.286719,61.8785837 C494.881528,63.3030847 494.482286,64.7296391 494.10902,66.1625956 C493.892222,66.9947322 493.777025,67.1271203 492.922338,67.1405282 C492.133442,67.1529698 491.34406,67.1431857 490.403916,67.1431857 C491.696812,62.7895975 492.968222,58.5084847 494.239025,54.2293045 C493.392592,53.9117421 492.489956,54.1794173 492.095569,54.9218055 C491.802661,55.4731005 491.610991,56.0768193 491.34321,56.6426094 C491.270135,56.7971025 491.090239,57.0007579 490.95028,57.0080055 C490.234095,57.0449678 489.514875,57.0250371 488.717118,57.0250371 C489.018523,55.8182035 489.31228,54.6425342 489.624002,53.3946312 Z" id="On-the-beach"></path>
        </g>
    </g>
</svg>