<?xml version="1.0" encoding="UTF-8" standalone="no"?>
<svg width="601px" height="166px" viewBox="0 0 601 166" version="1.1" xmlns="http://www.w3.org/2000/svg" xmlns:xlink="http://www.w3.org/1999/xlink">
    <!-- Generator: Sketch 3.6.1 (26313) - http://www.bohemiancoding.com/sketch -->
    <title>Typemass</title>
    <desc>Created with Sketch.</desc>
    <defs></defs>
    <g id="Page-1" stroke="none" stroke-width="1" fill="none" fill-rule="evenodd">
        <g id="Desktop-Copy-7" transform="translate(-212.000000, -248.000000)" stroke="#524831" stroke-width="2">
            <path d="M260.225921,249 L253.778028,252.489503 L254.075032,257.868182 L256.366037,259.178492 L264.41775,262.35352 L274.153648,268.263312 L282.645625,283.994026 L287.545604,297.890306 L291.446253,308.994751 L291.85507,321.221987 L291.526619,333.635577 L290.110319,342.12639 L284.098031,344.777293 L278.631998,341.417075 L262.331735,331.154723 L245.664585,320.70718 L233.808896,308.04201 L228.101766,292.661876 L226.032057,285.421974 L219.189325,283.955591 L214.777363,290.830936 L213,306.610568 L221.992807,326.705491 L239.496226,340.662336 L262.445878,355.529993 L271.171964,363.714484 L275.39757,370.601476 L279.603375,378.318913 L285.627309,379.590788 L290.222132,375.170674 L295.358549,368.928937 L306.004094,362.6674 L311.365302,363.073887 L315.04116,365.597837 L327.433786,369.989997 L334.927597,370.578181 L346.156667,381.214409 L347.215398,390.491407 L349.511062,396.864757 L357.461444,399.01949 L361.70685,394.173088 L363.969902,384.701582 L367.953246,372.469687 L374.940404,361.531797 L377.309446,359.002025 L379.741382,358.882058 L381.211259,360.348441 L383.463829,363.87405 L390.600071,370.099481 L402.028308,365.390516 L402.925143,358.008518 L402.568738,355.663936 L404.661741,352.941984 L407.149584,352.589074 L416.686315,345.077791 L415.091813,333.422434 L408.417965,326.363063 L399.79321,318.463929 L397.121341,316.026169 L391.644825,312.439994 L383.263497,304.908912 L368.991012,300.524904 L362.221657,301.419409 L351.738008,300.090463 L344.35368,291.975856 L342.372491,286.245431 L336.774844,284.868732 L333.273694,289.97836 L332.506144,293.952386 L327.068064,299.510432 L318.877749,297.997461 L314.173443,292.885502 L312.873615,286.500505 L312.818873,277.579911 L313.206725,277.571758 L312.822368,272.711379 L304.223236,263.719737 L290.952411,257.710944 L280.048298,250.526949 L260.225921,249 Z M756.988751,270.47861 L753.067137,282.488043 L750.799426,291.972362 L743.486146,298.096462 L739.237246,298.925743 L729.321981,309.793749 L728.769903,316.598046 L723.951455,319.534307 L718.059134,314.393231 L711.815067,302.065829 L710.644523,296.522924 L711.038199,292.650229 L709.924726,286.344432 L704.288644,285.135452 L702.111781,287.5604 L700.505632,293.588994 L694.145093,299.777153 L688.526482,300.133558 L682.156625,300.152193 L671.731212,300.906932 L667.022248,301.393785 L660.348399,306.381119 L658.947241,315.236488 L659.689168,327.4777 L659.753227,350.499565 L661.709958,359.41783 L669.97132,363.31382 L674.043183,362.31216 L678.781265,362.856085 L682.945141,365.646755 L695.490345,369.973691 L709.19794,371.431921 L718.500563,375.029743 L719.146983,378.752189 L716.818706,382.065819 L715.676116,395.774579 L733.673376,396.797204 L736.801816,388.939999 L739.181339,384.634028 L742.161859,382.566649 L749.183959,375.889307 L761.424006,364.48087 L773.301825,365.20649 L787.544027,369.957385 L792.420712,370.129764 L802.000538,370.47918 L810.755742,359.769575 L808.889859,351.217033 L805.698525,325.868057 L807.037954,319.909347 L810.473879,312.741657 L811.166888,300.243042 L804.522158,290.993996 L793.444501,290.369706 L787.617405,295.569018 L780.249383,298.297958 L772.57504,292.220447 L771.691017,279.924493 L770.540273,269.621376 L761.255122,266.191274 L756.988751,270.47861 Z M536.878013,342.393344 L537.292654,330.959283 L535.026108,313.162354 L539.224925,293.123338 L548.512406,287.507056 L550.440018,287.180935 L558.222681,280.74003 L563.753938,269.182509 L570.70499,265.382026 L575.55838,267.923446 L577.491816,273.954369 L577.301966,284.274957 L581.146709,296.600029 L585.676307,300.294522 L592.97561,307.164044 L596.728339,310.901632 L605.53712,309.204634 L608.642265,304.735601 L615.059875,300.890859 L623.542534,304.100829 L626.035036,323.01123 L621.409931,328.317697 L615.476845,334.702694 L613.093826,347.180345 L615.374349,352.22009 L618.319927,356.111421 L612.815458,371.002372 L604.636791,370.955784 L593.26446,369.898217 L584.399773,368.403881 L578.229084,364.59408 L577.063199,363.832353 L570.124959,364.05365 L562.408686,368.551801 L553.1841,370.995384 L540.299962,363.65648 L537.022439,350.082828 L537.007297,342.398002 L536.878013,342.393344 Z M504.297754,326.612895 L504.297754,326.892428 L506.613218,351.130261 L507.148989,360.266329 L492.515441,367.188262 L487.749405,364.023717 L480.434961,363.859491 L474.576417,367.389759 L464.096262,370.428515 L451.467198,362.964986 L448.688175,351.536749 L448.414466,334.09506 L448.614797,324.19843 L448.130274,314.457873 L450.641411,302.550935 L452.616777,293.495234 L453.004629,288.787434 L458.350696,284.436038 L462.657832,288.335522 L463.662986,292.246653 L470.223856,299.316507 L478.194038,300.55111 L489.887832,300.150446 L501.012077,305.82147 L504.00075,315.458367 L504.428202,326.608237 L504.297754,326.612895 Z M224.579185,380.633795 L221.740761,385.695671 L224.312464,400.649517 L245.833004,412.464441 L258.756742,409.270777 L263.089503,404.510565 L261.59866,399.652516 L258.014815,397.806434 L249.925832,394.759525 L237.438864,384.655575 L234.408261,380.662913 L231.154032,378.44878 L224.579185,380.633795 Z M262.095064,312.635202 L244.235241,299.021949 L245.688812,288.547618 L257.03086,287.231483 L262.358291,292.929296 L268.374072,298.098325 L272.919976,302.362367 L273.390523,306.343382 L268.365919,311.471646 L262.095064,312.635202 Z M250.23192,360.426012 L260.262493,365.866421 L259.620732,377.592827 L251.970848,380.057375 L241.503505,371.762236 L241.701508,365.264261 L250.23192,360.426012 Z M407.176955,300.503939 L413.907875,305.587944 L409.662468,313.915695 L402.876807,314.303547 L399.454858,310.151319 L404.736866,300.950027 L407.176955,300.503939 Z" id="Typemass"></path>
        </g>
    </g>
</svg>